<svg xmlns="http://www.w3.org/2000/svg" width="423.014" height="165.948" viewBox="0 0 423.014 165.948"><defs><style>.a{fill:#adabac;}.b{fill:#1d4980;}.c{fill:none;}</style></defs><g transform="translate(0)"><path class="a" d="M165.654,359.031l53.77-40.783a127.232,127.232,0,0,0-12.655,11.625c-7.308,7.567-14.437,16.794-17.943,27l-15.864,66.434H150.682c-2.258-6.705-4.278-12.734-6-18.023-1.071-3.2-1.9-5.721-2.555-7.628-.653-1.845-1.189-3.568-1.723-5.105-.12-.369-1.842-5.413-1.842-5.475-.535-1.6-1.307-2.4-2.376-2.4-1.962,0-6,3.813-7.189,5.291a11.817,11.817,0,0,0-2.08,3.567l-7.129,29.772H101.962a69.26,69.26,0,0,0-22.519,4.736,67.326,67.326,0,0,0-7.6,3.2c-1.961,1.045-3.208,1.661-3.683,1.968L152.94,368.75,159,387.019Zm0,0,53.77-40.783a127.232,127.232,0,0,0-12.655,11.625c-7.308,7.567-14.437,16.794-17.943,27l-15.864,66.434H150.682c-2.258-6.705-4.278-12.734-6-18.023-1.071-3.2-1.9-5.721-2.555-7.628-.653-1.845-1.189-3.568-1.723-5.105-.12-.369-1.842-5.413-1.842-5.475-.535-1.6-1.307-2.4-2.376-2.4-1.962,0-6,3.813-7.189,5.291a11.817,11.817,0,0,0-2.08,3.567l-7.129,29.772H101.962a69.26,69.26,0,0,0-22.519,4.736,67.326,67.326,0,0,0-7.6,3.2c-1.961,1.045-3.208,1.661-3.683,1.968L152.94,368.75,159,387.019ZM129.649,382.1l-27.807,21.1,16.815-70.247h22.4l10.694,32.295L135.472,377.67l-2.793-8.366Zm64.584-49.149L155.91,362.107c6.061-5.967,12.715-18.515,15.508-27.128l.475-2.029Z" transform="translate(-68.155 -315.939)"/><path class="b" d="M165.654,359.031l53.77-40.783a127.232,127.232,0,0,0-12.655,11.625c-7.308,7.567-14.437,16.794-17.943,27l-15.864,66.434H150.682c-2.258-6.705-4.278-12.734-6-18.023-1.071-3.2-1.9-5.721-2.555-7.628-.653-1.845-1.189-3.568-1.723-5.105-.12-.369-1.842-5.413-1.842-5.475-.535-1.6-1.307-2.4-2.376-2.4-1.962,0-6,3.813-7.189,5.291a11.817,11.817,0,0,0-2.08,3.567l-7.129,29.772H101.962a69.26,69.26,0,0,0-22.519,4.736,67.326,67.326,0,0,0-7.6,3.2c-1.961,1.045-3.208,1.661-3.683,1.968L152.94,368.75,159,387.019Zm0,0,53.77-40.783a127.232,127.232,0,0,0-12.655,11.625c-7.308,7.567-14.437,16.794-17.943,27l-15.864,66.434H150.682c-2.258-6.705-4.278-12.734-6-18.023-1.071-3.2-1.9-5.721-2.555-7.628-.653-1.845-1.189-3.568-1.723-5.105-.12-.369-1.842-5.413-1.842-5.475-.535-1.6-1.307-2.4-2.376-2.4-1.962,0-6,3.813-7.189,5.291a11.817,11.817,0,0,0-2.08,3.567l-7.129,29.772H101.962a69.26,69.26,0,0,0-22.519,4.736,67.326,67.326,0,0,0-7.6,3.2c-1.961,1.045-3.208,1.661-3.683,1.968L152.94,368.75,159,387.019Z" transform="translate(-68.155 -315.939)"/><path class="a" d="M421.427,335.341l-4.218,17.111H390.353L383.7,379.367,346.8,406.46c4.16-4.04,9.567-9.566,11.23-15.329l9.565-38.679H348.287l51.929-38.144c-4.813,4.337-12.656,11.348-15.864,16.993a6.663,6.663,0,0,0-.833,2.554,1.28,1.28,0,0,0,.951,1.486Zm-67.021,70.525,42.007-30.9c-1.842,2.08-3.684,4.04-5.407,6-2.2,2.5-4.4,4.991-6.417,7.605a31.267,31.267,0,0,0-5.941,11.29L373,422.621H350.248Z" transform="translate(-183.525 -314.308)"/><path class="a" d="M470,349.421h27.529c17.216,0,30.014,6.1,30.014,22.444,0,23-18.706,33.1-39.153,33.1h-11.13l-6.349,32.192H452.452Zm19.61,40.954c13.047,0,19.7-6.271,19.7-15.8,0-7.363-5.192-10.561-14.644-10.561h-9.231l-5.145,26.362ZM486.567,400.7l13.309-11.819L518.8,437.159h-19.44Z" transform="translate(-227.269 -328.846)"/><path class="a" d="M698.758,337.06a164.381,164.381,0,0,0-12.121,11.289c-3.565,3.447-8.794,9.15-10.636,13.9a7.265,7.265,0,0,0-.713,3.625c1.07,5.822.713,12.3-1.069,19.487l-.95,3.981c-5.942,24.064-24.717,42.9-50.088,42.9-8.614,0-17.17-2.258-23.409-8.5a6.3,6.3,0,0,0-4.634-1.486,27.323,27.323,0,0,0-7.843,1.486,98.2,98.2,0,0,0-17.765,8.2Zm-105.818,73.5c-1.308-5.942-1.129-12.656.534-20.083l1.248-4.872c6-24.122,24.716-42.957,50.205-42.957,9.626,0,19.489,3.031,25.37,11.051l-30.182,22.162c2.97-2.734,7.01-6.536,8.615-10.339a2.981,2.981,0,0,0-.059-3.089,11.353,11.353,0,0,0-7.724-2.436c-13.13,0-19.429,12.119-22.459,23.112l-1.6,6.358c-.179.714-.357,1.427-.476,2.08-.178.712-.3,1.425-.475,2.079Zm58.167-25.015a55.967,55.967,0,0,0,1.545-8.912,1.371,1.371,0,0,0-1.545-1.188,4.929,4.929,0,0,0-1.664.356,10.6,10.6,0,0,0-1.9,1.129c-.595.415-1.664,1.247-3.149,2.376-1.545,1.129-3.269,2.436-5.229,3.922s-4.04,3.089-6.239,4.694c-2.2,1.663-4.278,3.209-6.12,4.634-1.9,1.485-3.505,2.733-4.872,3.743a47.272,47.272,0,0,0-5.467,4.873,3.648,3.648,0,0,0-1.009,3.149c.356,7.13,4.634,10.813,11.645,10.813,13.546,0,20.082-14.319,22.994-25.608Z" transform="translate(-275.743 -323.728)"/><path class="a" d="M299.137,349.421h18.458l-17.547,87.738H281.589Z" transform="translate(-156.525 -328.846)"/><path class="b" d="M385.432,322.825,344.673,352.77c.356-.357,1.188-1.249,2.436-2.615s2.614-2.97,4.16-4.753,3.089-3.624,4.634-5.466c3.565-4.278,7.427-10.1,8.675-15.626l.415-1.485Zm-31.907,86.567,42.007-30.9c-1.842,2.08-3.684,4.04-5.407,6-2.2,2.5-4.4,4.991-6.417,7.605a31.266,31.266,0,0,0-5.941,11.29l-5.645,22.755H349.367Z" transform="translate(-182.644 -317.834)"/><path class="b" d="M698.758,337.06a164.381,164.381,0,0,0-12.121,11.289c-3.565,3.447-8.794,9.15-10.636,13.9a7.265,7.265,0,0,0-.713,3.625c1.07,5.822.713,12.3-1.069,19.487l-.95,3.981c-5.942,24.064-24.717,42.9-50.088,42.9-8.614,0-17.17-2.258-23.409-8.5a6.3,6.3,0,0,0-4.634-1.486,27.323,27.323,0,0,0-7.843,1.486,98.2,98.2,0,0,0-17.765,8.2Zm-47.651,48.482a55.967,55.967,0,0,0,1.545-8.912,1.371,1.371,0,0,0-1.545-1.188,4.929,4.929,0,0,0-1.664.356,10.6,10.6,0,0,0-1.9,1.129c-.595.415-1.664,1.247-3.149,2.376-1.545,1.129-3.269,2.436-5.229,3.922s-4.04,3.089-6.239,4.694c-2.2,1.663-4.278,3.209-6.12,4.634-1.9,1.485-3.505,2.733-4.872,3.743a47.272,47.272,0,0,0-5.467,4.873,3.648,3.648,0,0,0-1.009,3.149c.356,7.13,4.634,10.813,11.645,10.813,13.546,0,20.082-14.319,22.994-25.608Z" transform="translate(-275.743 -323.728)"/><g transform="translate(0 112.363)"><path class="b" d="M78.034,519.832l1.819-7.323h4.233a14.092,14.092,0,0,0,6.508-2.4c1.113-.626,2.211-1.27,3.309-1.928Zm18.77.564c-1.27,5.192-6.3,7.418-11.212,7.418H84.149a2.815,2.815,0,0,0-1.081.2l-8.61,6.3,2.493-10.115c0-.407-.282-.58-.659-.58a2.517,2.517,0,0,0-1.066.3l-1.317.612c-.424.2-.785.376-1.1.517-.361.172-.706.329-1,.471l17.719-13.016c2.854.062,5.959.894,7.119,3.779A6.486,6.486,0,0,1,96.8,520.4Zm-6.319-2.462a2.374,2.374,0,0,0-2.07-.909H84.73l-1.536,6.256h3.544a3.726,3.726,0,0,0,4-2.932A2.887,2.887,0,0,0,90.485,517.934Zm-9.033,12.373-1.3,5.238H76.81a18.91,18.91,0,0,0-5.159,2.383c-1.113.643-2.274,1.349-3.5,2.134Z" transform="translate(-68.155 -506.942)"/><path class="a" d="M103.224,550.724l8.939-6.6c-.471.517-.91,1-1.332,1.49-.252.282-.456.517-.612.721-.173.2-.329.392-.5.6a8.991,8.991,0,0,0-2.054,3.8Zm5.551-5.066-8.954,6.587c.659-.721,1.317-1.458,1.961-2.211l.5-.6a9.124,9.124,0,0,0,2.055-3.779Z" transform="translate(-81.266 -521.822)"/><path class="b" d="M145.487,511.618l-1.113,4.516h-7.088l-1.756,7.1-9.738,7.15a10.622,10.622,0,0,0,2.963-4.046l2.525-10.208h-5.1l13.706-10.068a23.194,23.194,0,0,0-4.188,4.485,1.776,1.776,0,0,0-.219.674.339.339,0,0,0,.251.393Zm-14.646,0-10.757,7.9c.094-.093.313-.329.642-.689s.69-.785,1.1-1.255.816-.956,1.223-1.442a10.809,10.809,0,0,0,2.289-4.124l.11-.392ZM127.8,530.231l11.086-8.154c-.486.549-.973,1.066-1.427,1.584-.58.659-1.16,1.317-1.693,2.008a8.232,8.232,0,0,0-1.569,2.978l-1.49,6.006H126.7Z" transform="translate(-89.656 -506.066)"/></g><rect class="c" width="135.038" height="135.038" transform="translate(118.107 30.91)"/></g></svg>