<svg xmlns="http://www.w3.org/2000/svg" width="95" height="100.146" viewBox="0 0 95 100.146"><defs><style>.a{fill:#1d4980;}</style></defs><g transform="translate(-0.5 0.001)"><path class="a" d="M93.68,103.217a45.966,45.966,0,0,1-25.215-4.71,1.634,1.634,0,0,0-1.242-.157c-.176.047-17.789,4.768-31.973,1.62C26.408,98,18.067,91.774,11.977,87.226c-.818-.611-1.593-1.19-2.32-1.722a18.6,18.6,0,0,0-3.968-1.865c-.626-.239-1.483-.567-1.666-.682a.641.641,0,0,1-.247-.518v-3.8c.079-3,12.675-49.23,14.628-55.111a1.266,1.266,0,0,1,.374-.271L43.705,11.875l8.058,10.491a1.445,1.445,0,0,1-.088,1.8L43.713,33.1a1.419,1.419,0,0,1-1.943.194l-3.22-2.968a1.648,1.648,0,0,0-1.417-.371,1.717,1.717,0,0,0-1.188.907c-.27.529-2.707,1.18-5.195,1.2l-.811-.082a1.638,1.638,0,0,0-1.461,2.631c.691.894,1.23,1.612,1.536,2.024l1.594,27.093c-.988,3.848-1.893,4.941-2.118,5.16a1.638,1.638,0,0,0,.493,3.2c1.857,0,3.437-2.441,4.7-7.207,13.028-9.748,24.4-.549,25.289.209,4.137,4.153,4.394,6.912,4.4,7.034a1.638,1.638,0,0,0,3.276-.036c0-.377-.136-3.609-4.376-8.278,4-4.916,8.551-7.747,13.563-8.363,8.641-1.064,15.912,4.748,15.984,4.806A1.638,1.638,0,0,0,94.9,57.713c-.338-.276-8.38-6.747-18.422-5.525-5.869.712-11.138,3.887-15.681,9.442-3.685-2.507-14.254-8.18-26.075-.76L33.254,35.955a1.622,1.622,0,0,0-.238-.759,10.763,10.763,0,0,0,4.477-1.389l2.111,1.945a4.694,4.694,0,0,0,6.55-.471l7.964-8.927a4.748,4.748,0,0,0,.266-5.949L45.508,8.846a1.639,1.639,0,0,0-1.98-.492L17.437,20.272a3.985,3.985,0,0,0-2.112,2.158C14.4,25.214.5,74.776.5,78.637v3.8a3.906,3.906,0,0,0,1.5,3.1A10.355,10.355,0,0,0,4.519,86.7a17.84,17.84,0,0,1,3.2,1.449c.72.526,1.486,1.1,2.294,1.7,6.328,4.726,14.994,11.2,24.525,13.316,13.566,3.015,29.492-.63,32.9-1.49a49.1,49.1,0,0,0,21.591,5.07,45.257,45.257,0,0,0,5.005-.276,1.637,1.637,0,1,0-.362-3.255Zm0,0" transform="translate(0 -6.602)"/><path class="a" d="M422.462,386.489a1.638,1.638,0,0,0-3.266.18c0,1.094.808,4.8,11.2,6.53a1.73,1.73,0,0,0,.271.022,1.638,1.638,0,0,0,.267-3.253C423.665,388.757,422.559,386.707,422.462,386.489Zm0,0" transform="translate(-336.799 -309.721)"/><path class="a" d="M336.7,19.894h4.991v4.641a1.638,1.638,0,0,0,1.638,1.638h13.1a1.638,1.638,0,0,0,1.638-1.638V19.894h4.914a1.639,1.639,0,0,0,1.286-2.654L351.129.59a1.7,1.7,0,0,0-2.572,0L335.416,17.242a1.638,1.638,0,0,0,1.286,2.653ZM349.843,4.249l9.763,12.369h-3.173a1.638,1.638,0,0,0-1.638,1.638V22.9h-9.827V18.256a1.638,1.638,0,0,0-1.638-1.638h-3.25Zm0,0" transform="translate(-269.124)"/><path class="a" d="M385.329,143.829a1.638,1.638,0,0,0-1.638-1.637h-13.1a1.638,1.638,0,0,0-1.638,1.637v4.914a1.638,1.638,0,0,0,1.638,1.638h13.1a1.638,1.638,0,0,0,1.638-1.638Zm-3.276,3.276h-9.827v-1.638h9.827Zm0,0" transform="translate(-296.381 -114.38)"/><path class="a" d="M383.694,192.434h-13.1a1.638,1.638,0,0,0,0,3.276h13.1a1.638,1.638,0,1,0,0-3.276Zm0,0" transform="translate(-296.384 -154.795)"/><path class="a" d="M135.039,388.162c-21.454,4.594-30.632-10.084-31.013-10.71a1.638,1.638,0,0,0-2.807,1.689,28.1,28.1,0,0,0,8.288,8.1,31.763,31.763,0,0,0,17.616,5.068,41.017,41.017,0,0,0,8.6-.947,1.638,1.638,0,0,0-.686-3.2Zm0,0" transform="translate(-80.83 -302.987)"/></g></svg>