<svg xmlns="http://www.w3.org/2000/svg" width="106.729" height="106.73" viewBox="0 0 106.729 106.73"><defs><style>.a{fill:#1d4980;}</style></defs><g transform="translate(-0.004)"><path class="a" d="M95.649,71.831h1.779a1.779,1.779,0,0,0,0-3.558H95.649a1.779,1.779,0,0,0,0,3.558Zm0,0" transform="translate(-74.3 -54.042)"/><path class="a" d="M138.314,71.831h23.125a1.779,1.779,0,0,0,0-3.558H138.314a1.779,1.779,0,1,0,0,3.558Zm0,0" transform="translate(-108.071 -54.042)"/><path class="a" d="M90.586,56.923h-3.9a8.306,8.306,0,0,0-2.389.356,1.643,1.643,0,0,0-.178.051,8.239,8.239,0,0,0-2.583,1.461c.386-4.092,2.412-10.033,10.1-14.572a1.779,1.779,0,0,0-1.808-3.063A23.429,23.429,0,0,0,79.289,52.964c-.094-.308-.2-.608-.306-.889a14.871,14.871,0,0,0-4.269-6.048V16.011a5.336,5.336,0,0,0-5.336-5.337H61.935a5.338,5.338,0,0,0-5.009-3.558H47.4a10.637,10.637,0,0,0-20.075,0H17.792a5.336,5.336,0,0,0-5.009,3.558H5.341A5.336,5.336,0,0,0,0,16.011v85.382a5.336,5.336,0,0,0,5.337,5.337H69.378a5.207,5.207,0,0,0,2.391-.578,21.848,21.848,0,0,0,4.957.578h6.649c12.879,0,23.357-11.169,23.357-24.9v-7.7C106.732,64.644,99.489,56.923,90.586,56.923Zm-14.93-3.575a23.892,23.892,0,0,1,.994,4.287c-.178-.077-.336-.178-.515-.237a8.075,8.075,0,0,0-2.729-.475H69.514c-.488,0-.967.033-1.445.078-.044-.012-.077-.041-.123-.05-5.887-1.179-5.806-8.047-5.583-10.506a28.9,28.9,0,0,1,3.419-.191h.037a10.5,10.5,0,0,1,9.836,7.1ZM57.584,96.057H10.677V21.347h2.107A5.335,5.335,0,0,0,17.792,24.9H56.926a5.337,5.337,0,0,0,5.009-3.558h2.106V42.719c-4.594.164-4.9,1.443-5.062,2.174-.626,3.659-.308,10.139,3.927,13.56a17.286,17.286,0,0,0-9.538,15.671v7.7A25.878,25.878,0,0,0,57.584,96.057ZM71.156,16.011V43.847a14.232,14.232,0,0,0-3.558-.975V21.347a3.557,3.557,0,0,0-3.558-3.558H62.262V14.232h7.115A1.779,1.779,0,0,1,71.156,16.011ZM17.792,10.674H28.643a1.463,1.463,0,0,0,.178-.037,1.715,1.715,0,0,0,.327-.066,1.676,1.676,0,0,0,.326-.135,1.71,1.71,0,0,0,.7-.7,1.589,1.589,0,0,0,.138-.326,1.484,1.484,0,0,0,.071-.165,7.115,7.115,0,0,1,13.942,0,1.786,1.786,0,0,0,.075.189,2.057,2.057,0,0,0,.1.254,1.713,1.713,0,0,0,.217.322,1.678,1.678,0,0,0,.167.189,1.76,1.76,0,0,0,.345.233,1.392,1.392,0,0,0,.85.24H56.926A1.779,1.779,0,0,1,58.7,12.454v7.115a1.779,1.779,0,0,1-1.779,1.778H17.792a1.779,1.779,0,0,1-1.778-1.778V12.454A1.779,1.779,0,0,1,17.792,10.674Zm-12.451,92.5a1.779,1.779,0,0,1-1.779-1.779V16.011a1.779,1.779,0,0,1,1.779-1.779h7.115v3.558H10.677a3.557,3.557,0,0,0-3.558,3.558v74.71a3.557,3.557,0,0,0,3.558,3.558H60.408a23.8,23.8,0,0,0,4.344,3.558Zm97.834-21.346c0,11.769-8.884,21.346-19.8,21.346H76.726c-10.916,0-19.8-9.573-19.8-21.346v-7.7c0-7.519,5.648-13.643,12.589-13.643h3.922a4.554,4.554,0,0,1,1.493.267,5.323,5.323,0,0,1,3.342,5.085V67.6a1.779,1.779,0,1,0,3.558,0V65.828a5.326,5.326,0,0,1,3.32-5.093l.085-.024a4.853,4.853,0,0,1,1.423-.233h3.928c6.942,0,12.59,6.127,12.59,13.646Zm0,0"/><path class="a" d="M296.69,307.286c-.269.087-6.553,2.28-6.553,10.581a1.779,1.779,0,1,0,3.558,0c0-5.645,3.935-7.14,4.136-7.211a1.779,1.779,0,1,0-1.14-3.37Zm0,0" transform="translate(-229.653 -243.156)"/><path class="a" d="M77.164,145.074H71.827a3.557,3.557,0,0,0-3.558,3.558v5.337a3.557,3.557,0,0,0,3.558,3.558h5.337a3.557,3.557,0,0,0,3.558-3.558v-5.337A3.557,3.557,0,0,0,77.164,145.074Zm-5.337,8.894v-5.337h5.337v5.337Zm0,0" transform="translate(-54.035 -114.833)"/><path class="a" d="M77.164,221.875H71.827a3.557,3.557,0,0,0-3.558,3.558v5.336a3.558,3.558,0,0,0,3.558,3.558h5.337a3.558,3.558,0,0,0,3.558-3.558v-5.336A3.557,3.557,0,0,0,77.164,221.875Zm-5.337,8.893v-5.336h5.337v5.336Zm0,0" transform="translate(-54.035 -175.624)"/><path class="a" d="M77.164,298.676H71.827a3.557,3.557,0,0,0-3.558,3.558v5.336a3.557,3.557,0,0,0,3.558,3.558h5.337a3.557,3.557,0,0,0,3.558-3.558v-5.336A3.557,3.557,0,0,0,77.164,298.676Zm-5.337,8.893v-5.336h5.337v5.336Zm0,0" transform="translate(-54.035 -236.416)"/><path class="a" d="M77.164,375.473H71.827a3.557,3.557,0,0,0-3.558,3.558v5.337a3.557,3.557,0,0,0,3.558,3.558h5.337a3.557,3.557,0,0,0,3.558-3.558V379.03A3.557,3.557,0,0,0,77.164,375.473Zm-5.337,8.894V379.03h5.337v5.337Zm0,0" transform="translate(-54.035 -297.204)"/><path class="a" d="M146.85,174.233h24.9a1.779,1.779,0,1,0,0-3.558h-24.9a1.779,1.779,0,1,0,0,3.558Zm0,0" transform="translate(-114.827 -135.098)"/><path class="a" d="M166.416,247.473H146.85a1.779,1.779,0,1,0,0,3.558h19.566a1.779,1.779,0,1,0,0-3.558Zm0,0" transform="translate(-114.827 -195.886)"/><path class="a" d="M162.858,324.273H146.85a1.779,1.779,0,1,0,0,3.558h16.009a1.779,1.779,0,1,0,0-3.558Zm0,0" transform="translate(-114.827 -256.677)"/><path class="a" d="M162.858,401.074H146.85a1.779,1.779,0,1,0,0,3.558h16.009a1.779,1.779,0,1,0,0-3.558Zm0,0" transform="translate(-114.827 -317.469)"/></g></svg>