<svg xmlns="http://www.w3.org/2000/svg" width="46.442" height="177.402" viewBox="0 0 46.442 177.402"><defs><style>.a{opacity:0.65;}.b{fill:#1d4980;}</style></defs><g class="a"><g transform="translate(0 162.425)"><path class="b" d="M2635.771,2299.485a7.489,7.489,0,1,1-7.488,7.489A7.489,7.489,0,0,1,2635.771,2299.485Z" transform="translate(-2628.283 -2299.485)"/></g><g transform="translate(0 121.819)"><path class="b" d="M2635.771,2214.7a7.489,7.489,0,1,1-7.488,7.488A7.489,7.489,0,0,1,2635.771,2214.7Z" transform="translate(-2628.283 -2214.703)"/></g><g transform="translate(0 81.212)"><path class="b" d="M2635.771,2129.92a7.489,7.489,0,1,1-7.488,7.489A7.489,7.489,0,0,1,2635.771,2129.92Z" transform="translate(-2628.283 -2129.92)"/></g><g transform="translate(0 40.606)"><path class="b" d="M2635.771,2045.138a7.489,7.489,0,1,1-7.488,7.489A7.489,7.489,0,0,1,2635.771,2045.138Z" transform="translate(-2628.283 -2045.138)"/></g><g transform="translate(0)"><path class="b" d="M2635.772,1960.355a7.489,7.489,0,1,1-7.488,7.489A7.489,7.489,0,0,1,2635.772,1960.355Z" transform="translate(-2628.284 -1960.355)"/></g><g transform="translate(31.465 0)"><g transform="translate(0 162.424)"><path class="b" d="M2701.468,2299.485a7.489,7.489,0,1,1-7.488,7.489A7.488,7.488,0,0,1,2701.468,2299.485Z" transform="translate(-2693.98 -2299.485)"/></g><g transform="translate(0 121.818)"><path class="b" d="M2701.468,2214.7a7.489,7.489,0,1,1-7.488,7.488A7.487,7.487,0,0,1,2701.468,2214.7Z" transform="translate(-2693.98 -2214.703)"/></g><g transform="translate(0 81.212)"><path class="b" d="M2701.468,2129.92a7.489,7.489,0,1,1-7.488,7.489A7.488,7.488,0,0,1,2701.468,2129.92Z" transform="translate(-2693.98 -2129.92)"/></g><g transform="translate(0 40.606)"><path class="b" d="M2701.468,2045.138a7.489,7.489,0,1,1-7.488,7.489A7.488,7.488,0,0,1,2701.468,2045.138Z" transform="translate(-2693.98 -2045.138)"/></g><g transform="translate(0)"><path class="b" d="M2701.469,1960.356a7.489,7.489,0,1,1-7.488,7.488A7.488,7.488,0,0,1,2701.469,1960.356Z" transform="translate(-2693.981 -1960.356)"/></g></g></g></svg>