<svg xmlns="http://www.w3.org/2000/svg" width="39.79" height="53.064" viewBox="0 0 39.79 53.064"><defs><style>.a{fill:rgba(0,0,0,0.8);}</style></defs><path class="a" d="M38.329,10.055,29.635,1.361A4.974,4.974,0,0,0,26.123-.1H4.974A4.991,4.991,0,0,0,0,4.884V47.99a4.975,4.975,0,0,0,4.974,4.974H34.816A4.975,4.975,0,0,0,39.79,47.99V13.578a5,5,0,0,0-1.461-3.523Zm-3.917,3.119H26.527V5.288ZM4.974,47.99V4.884H21.553V15.661a2.481,2.481,0,0,0,2.487,2.487H34.816V47.99ZM30.9,33.1c-1.264-1.243-4.87-.9-6.673-.674a8.986,8.986,0,0,1-3.813-4.8c.4-1.668,1.047-4.207.56-5.8a2.309,2.309,0,0,0-4.414-.611c-.456,1.668-.041,3.989.725,6.953a83.206,83.206,0,0,1-3.668,7.709c-2.072,1.067-4.87,2.715-5.285,4.787-.342,1.637,2.694,5.72,7.885-3.233A51.374,51.374,0,0,1,23.3,35.348a13.787,13.787,0,0,0,5.782,1.762A2.394,2.394,0,0,0,30.9,33.1ZM10.372,41.161c.528-1.42,2.539-3.057,3.15-3.627C11.554,40.674,10.372,41.234,10.372,41.161Zm8.455-19.75c.767,0,.694,3.326.187,4.228C18.558,24.2,18.569,21.411,18.828,21.411ZM16.3,35.566A40.673,40.673,0,0,0,18.859,29.9a11.417,11.417,0,0,0,3.119,3.678A35.058,35.058,0,0,0,16.3,35.566Zm13.636-.518s-.518.622-3.865-.808C29.708,33.97,30.309,34.8,29.936,35.048Z" transform="translate(0 0.1)"/></svg>