<svg xmlns="http://www.w3.org/2000/svg" width="56.59" height="53.562" viewBox="0 0 56.59 53.562"><defs><style>.a{fill:#1d4980;}.b{fill:#adabac;}</style></defs><g transform="translate(668.133 -942)"><g transform="translate(-668.133 983.171)"><path class="a" d="M248.8,474.235l.68-2.74h1.584a5.267,5.267,0,0,0,2.435-.9c.417-.234.827-.475,1.238-.721Zm7.022.211c-.475,1.942-2.358,2.775-4.194,2.775h-.54a1.055,1.055,0,0,0-.4.076l-3.221,2.358.933-3.784c0-.152-.106-.217-.246-.217a.944.944,0,0,0-.4.112l-.493.229c-.158.076-.294.141-.411.193-.135.064-.264.123-.376.176l6.629-4.869a2.7,2.7,0,0,1,2.664,1.414A2.428,2.428,0,0,1,255.825,474.446Zm-2.364-.921a.887.887,0,0,0-.774-.34h-1.379l-.575,2.341h1.326a1.394,1.394,0,0,0,1.5-1.1A1.078,1.078,0,0,0,253.461,473.525Zm-3.379,4.629-.487,1.96h-1.249a7.072,7.072,0,0,0-1.93.892c-.417.241-.851.5-1.308.8Z" transform="translate(-245.107 -469.412)"/><path class="b" d="M278.047,508.286l3.344-2.47c-.176.194-.34.375-.5.557-.094.106-.17.194-.229.27l-.188.223a3.359,3.359,0,0,0-.768,1.42Zm2.077-1.9-3.35,2.464c.246-.27.493-.545.733-.827l.188-.223a3.416,3.416,0,0,0,.769-1.414Z" transform="translate(-269.832 -497.474)"/><path class="a" d="M306.54,469.837l-.417,1.689h-2.652l-.657,2.658-3.643,2.675a3.976,3.976,0,0,0,1.109-1.514l.945-3.819h-1.907l5.127-3.766a8.677,8.677,0,0,0-1.566,1.678.67.67,0,0,0-.082.252.127.127,0,0,0,.094.147Zm-5.479,0-4.024,2.956c.036-.035.117-.123.24-.258s.258-.294.411-.47.305-.358.458-.54a4.042,4.042,0,0,0,.856-1.543l.041-.147Zm-1.138,6.963,4.147-3.051c-.182.205-.364.4-.534.593-.217.246-.434.493-.633.751a3.073,3.073,0,0,0-.587,1.114l-.557,2.247h-2.247Z" transform="translate(-285.653 -467.76)"/></g><path class="b" d="M281.582,295.2,301.7,279.943a47.618,47.618,0,0,0-4.734,4.349,28.638,28.638,0,0,0-6.713,10.1l-5.935,24.853h-8.335c-.845-2.508-1.6-4.764-2.245-6.742-.4-1.2-.711-2.14-.956-2.854-.244-.69-.445-1.335-.644-1.91-.044-.138-.689-2.025-.689-2.048-.2-.6-.489-.9-.889-.9-.734,0-2.245,1.427-2.689,1.979a4.419,4.419,0,0,0-.778,1.335l-2.667,11.138h-6.668a25.908,25.908,0,0,0-8.424,1.772,25.191,25.191,0,0,0-2.845,1.2c-.733.391-1.2.621-1.378.737l31.718-24.117,2.267,6.835Zm0,0L301.7,279.943a47.618,47.618,0,0,0-4.734,4.349,28.638,28.638,0,0,0-6.713,10.1l-5.935,24.853h-8.335c-.845-2.508-1.6-4.764-2.245-6.742-.4-1.2-.711-2.14-.956-2.854-.244-.69-.445-1.335-.644-1.91-.044-.138-.689-2.025-.689-2.048-.2-.6-.489-.9-.889-.9-.734,0-2.245,1.427-2.689,1.979a4.419,4.419,0,0,0-.778,1.335l-2.667,11.138h-6.668a25.908,25.908,0,0,0-8.424,1.772,25.191,25.191,0,0,0-2.845,1.2c-.733.391-1.2.621-1.378.737l31.718-24.117,2.267,6.835Zm-13.47,8.63-10.4,7.893,6.29-26.28h8.38l4,12.082-6.09,4.648-1.045-3.13Zm24.161-18.387-14.337,10.908c2.267-2.232,4.757-6.927,5.8-10.149l.178-.759Z" transform="translate(-913.24 662.057)"/><path class="a" d="M281.582,295.2,301.7,279.943a47.618,47.618,0,0,0-4.734,4.349,28.638,28.638,0,0,0-6.713,10.1l-5.935,24.853h-8.335c-.845-2.508-1.6-4.764-2.245-6.742-.4-1.2-.711-2.14-.956-2.854-.244-.69-.445-1.335-.644-1.91-.044-.138-.689-2.025-.689-2.048-.2-.6-.489-.9-.889-.9-.734,0-2.245,1.427-2.689,1.979a4.419,4.419,0,0,0-.778,1.335l-2.667,11.138h-6.668a25.908,25.908,0,0,0-8.424,1.772,25.191,25.191,0,0,0-2.845,1.2c-.733.391-1.2.621-1.378.737l31.718-24.117,2.267,6.835Zm0,0L301.7,279.943a47.618,47.618,0,0,0-4.734,4.349,28.638,28.638,0,0,0-6.713,10.1l-5.935,24.853h-8.335c-.845-2.508-1.6-4.764-2.245-6.742-.4-1.2-.711-2.14-.956-2.854-.244-.69-.445-1.335-.644-1.91-.044-.138-.689-2.025-.689-2.048-.2-.6-.489-.9-.889-.9-.734,0-2.245,1.427-2.689,1.979a4.419,4.419,0,0,0-.778,1.335l-2.667,11.138h-6.668a25.908,25.908,0,0,0-8.424,1.772,25.191,25.191,0,0,0-2.845,1.2c-.733.391-1.2.621-1.378.737l31.718-24.117,2.267,6.835Z" transform="translate(-913.24 662.057)"/></g></svg>