<svg xmlns="http://www.w3.org/2000/svg" width="84.654" height="80.123" viewBox="0 0 84.654 80.123"><defs><style>.a{fill:#adabac;}.b{fill:#fff;}</style></defs><g transform="translate(-1818.346 -26.877)"><path class="a" d="M299.67,302.766l30.091-22.823a71.237,71.237,0,0,0-7.082,6.506c-4.09,4.234-8.08,9.4-10.042,15.112l-8.878,37.178H291.291c-1.263-3.752-2.394-7.126-3.358-10.086-.6-1.79-1.064-3.2-1.43-4.269-.366-1.033-.665-2-.964-2.857-.067-.207-1.031-3.029-1.031-3.064-.3-.9-.732-1.342-1.33-1.342-1.1,0-3.359,2.134-4.023,2.96a6.609,6.609,0,0,0-1.164,2L274,338.739h-9.975a38.758,38.758,0,0,0-12.6,2.651,37.685,37.685,0,0,0-4.256,1.79c-1.1.585-1.8.93-2.061,1.1l47.448-36.076,3.392,10.224Zm0,0,30.091-22.823a71.237,71.237,0,0,0-7.082,6.506c-4.09,4.234-8.08,9.4-10.042,15.112l-8.878,37.178H291.291c-1.263-3.752-2.394-7.126-3.358-10.086-.6-1.79-1.064-3.2-1.43-4.269-.366-1.033-.665-2-.964-2.857-.067-.207-1.031-3.029-1.031-3.064-.3-.9-.732-1.342-1.33-1.342-1.1,0-3.359,2.134-4.023,2.96a6.609,6.609,0,0,0-1.164,2L274,338.739h-9.975a38.758,38.758,0,0,0-12.6,2.651,37.685,37.685,0,0,0-4.256,1.79c-1.1.585-1.8.93-2.061,1.1l47.448-36.076,3.392,10.224Zm-20.15,12.909L263.96,327.482l9.41-39.312H285.9l5.985,18.073-9.111,6.953-1.563-4.682Zm36.143-27.5-21.446,16.317c3.392-3.339,7.115-10.362,8.678-15.182l.266-1.136Z" transform="translate(1573.239 -253.066)"/><path class="b" d="M299.67,302.766l30.091-22.823a71.237,71.237,0,0,0-7.082,6.506c-4.09,4.234-8.08,9.4-10.042,15.112l-8.878,37.178H291.291c-1.263-3.752-2.394-7.126-3.358-10.086-.6-1.79-1.064-3.2-1.43-4.269-.366-1.033-.665-2-.964-2.857-.067-.207-1.031-3.029-1.031-3.064-.3-.9-.732-1.342-1.33-1.342-1.1,0-3.359,2.134-4.023,2.96a6.609,6.609,0,0,0-1.164,2L274,338.739h-9.975a38.758,38.758,0,0,0-12.6,2.651,37.685,37.685,0,0,0-4.256,1.79c-1.1.585-1.8.93-2.061,1.1l47.448-36.076,3.392,10.224Zm0,0,30.091-22.823a71.237,71.237,0,0,0-7.082,6.506c-4.09,4.234-8.08,9.4-10.042,15.112l-8.878,37.178H291.291c-1.263-3.752-2.394-7.126-3.358-10.086-.6-1.79-1.064-3.2-1.43-4.269-.366-1.033-.665-2-.964-2.857-.067-.207-1.031-3.029-1.031-3.064-.3-.9-.732-1.342-1.33-1.342-1.1,0-3.359,2.134-4.023,2.96a6.609,6.609,0,0,0-1.164,2L274,338.739h-9.975a38.758,38.758,0,0,0-12.6,2.651,37.685,37.685,0,0,0-4.256,1.79c-1.1.585-1.8.93-2.061,1.1l47.448-36.076,3.392,10.224Z" transform="translate(1573.239 -253.066)"/><g transform="translate(1818.346 88.465)"><path class="b" d="M250.636,476.4l1.018-4.1h2.369a7.88,7.88,0,0,0,3.642-1.342c.623-.351,1.238-.711,1.852-1.079Zm10.5.315c-.711,2.9-3.527,4.151-6.274,4.151h-.808a1.578,1.578,0,0,0-.605.114l-4.818,3.527,1.4-5.66c0-.228-.158-.324-.369-.324a1.412,1.412,0,0,0-.6.167l-.737.342c-.237.113-.439.21-.615.289-.2.1-.4.184-.562.263l9.916-7.284c1.6.035,3.335.5,3.985,2.115A3.632,3.632,0,0,1,261.14,476.712Zm-3.536-1.378a1.328,1.328,0,0,0-1.158-.509h-2.062l-.86,3.5h1.983a2.085,2.085,0,0,0,2.238-1.641A1.613,1.613,0,0,0,257.6,475.334Zm-5.055,6.924-.729,2.931h-1.869a10.578,10.578,0,0,0-2.887,1.334c-.623.36-1.273.755-1.957,1.194Z" transform="translate(-245.107 -469.182)"/><path class="a" d="M278.678,509.511l5-3.695c-.263.29-.509.562-.746.834-.141.158-.255.29-.342.4l-.281.333a5.026,5.026,0,0,0-1.149,2.124Zm3.106-2.835-5.011,3.686c.368-.4.737-.816,1.1-1.237l.281-.333a5.11,5.11,0,0,0,1.15-2.115Z" transform="translate(-266.39 -493.337)"/><path class="b" d="M311.253,470.867l-.623,2.527h-3.966l-.983,3.976-5.449,4a5.948,5.948,0,0,0,1.658-2.265l1.413-5.713H300.45l7.67-5.634a12.977,12.977,0,0,0-2.343,2.51,1,1,0,0,0-.123.377.19.19,0,0,0,.14.22Zm-8.2,0-6.02,4.422c.053-.052.175-.184.36-.386s.386-.439.615-.7.456-.535.685-.807a6.045,6.045,0,0,0,1.281-2.308l.062-.219Zm-1.7,10.416,6.2-4.563c-.273.307-.545.6-.8.887-.325.368-.649.737-.947,1.123a4.6,4.6,0,0,0-.878,1.667l-.834,3.361H300.74Z" transform="translate(-280.008 -467.76)"/></g></g></svg>