<svg xmlns="http://www.w3.org/2000/svg" width="82.933" height="100.146" viewBox="0 0 82.933 100.146"><defs><style>.a{fill:#1d4980;}</style></defs><g transform="translate(-44.001)"><g transform="translate(83.512 29.731)"><path class="a" d="M276.124,152H247.957a1.956,1.956,0,1,0,0,3.912h28.167a1.956,1.956,0,1,0,0-3.912Z" transform="translate(-246.001 -152)"/></g><g transform="translate(103.451 39.12)"><g transform="translate(0)"><path class="a" d="M351.28,200.574a1.955,1.955,0,1,0,.573,1.383A1.971,1.971,0,0,0,351.28,200.574Z" transform="translate(-347.941 -200.001)"/></g></g><g transform="translate(83.51 8.411)"><g transform="translate(0)"><path class="a" d="M249.33,43.574a1.955,1.955,0,1,0,.573,1.383A1.971,1.971,0,0,0,249.33,43.574Z" transform="translate(-245.991 -43.001)"/></g></g><g transform="translate(83.512 39.12)"><path class="a" d="M259.669,200H247.957a1.956,1.956,0,1,0,0,3.912h11.712a1.956,1.956,0,0,0,0-3.912Z" transform="translate(-246.001 -200)"/></g><g transform="translate(83.512 50.856)"><path class="a" d="M276.124,260H247.957a1.956,1.956,0,1,0,0,3.912h28.167a1.956,1.956,0,1,0,0-3.912Z" transform="translate(-246.001 -260)"/></g><g transform="translate(103.451 60.244)"><g transform="translate(0)"><path class="a" d="M351.28,308.574a1.955,1.955,0,1,0,.573,1.383A1.971,1.971,0,0,0,351.28,308.574Z" transform="translate(-347.941 -308.001)"/></g></g><g transform="translate(83.512 60.244)"><path class="a" d="M259.669,308H247.957a1.956,1.956,0,1,0,0,3.912h11.712a1.956,1.956,0,0,0,0-3.912Z" transform="translate(-246.001 -308)"/></g><g transform="translate(83.512 71.98)"><path class="a" d="M276.124,368H247.957a1.956,1.956,0,1,0,0,3.912h28.167a1.956,1.956,0,1,0,0-3.912Z" transform="translate(-246.001 -368)"/></g><g transform="translate(103.451 81.369)"><g transform="translate(0)"><path class="a" d="M351.28,416.574a1.955,1.955,0,1,0,.573,1.383A1.971,1.971,0,0,0,351.28,416.574Z" transform="translate(-347.941 -416.001)"/></g></g><g transform="translate(83.512 81.369)"><path class="a" d="M259.669,416H247.957a1.956,1.956,0,1,0,0,3.912h11.712a1.956,1.956,0,1,0,0-3.912Z" transform="translate(-246.001 -416)"/></g><g transform="translate(44.001)"><path class="a" d="M117.4,7.629h-14.94A11.984,11.984,0,0,0,94.168,4.3H92.454a7.823,7.823,0,0,0-13.973,0H76.764a11.983,11.983,0,0,0-8.29,3.325H53.538A9.548,9.548,0,0,0,44,17.166V90.61a9.548,9.548,0,0,0,9.537,9.537H117.4a9.548,9.548,0,0,0,9.537-9.537V17.166A9.548,9.548,0,0,0,117.4,7.629Zm-40.634.587h3.049A1.956,1.956,0,0,0,81.7,6.78a3.912,3.912,0,0,1,7.54,0,1.956,1.956,0,0,0,1.885,1.435h3.044a8.129,8.129,0,0,1,8.089,7.433H68.675A8.129,8.129,0,0,1,76.764,8.215ZM123.023,90.61a5.631,5.631,0,0,1-5.625,5.625H53.538a5.631,5.631,0,0,1-5.625-5.625V17.166a5.631,5.631,0,0,1,5.625-5.625H65.733a11.958,11.958,0,0,0-1,4.792V17.6A1.956,1.956,0,0,0,66.69,19.56h37.551A1.956,1.956,0,0,0,106.2,17.6V16.333a11.959,11.959,0,0,0-1-4.792h12.2a5.631,5.631,0,0,1,5.625,5.625Z" transform="translate(-44.001)"/></g><g transform="translate(55.983 28.688)"><g transform="translate(0)"><path class="a" d="M122.307,147.24a1.956,1.956,0,0,0-2.766,0l-8.364,8.364-2.577-2.577a1.956,1.956,0,0,0-2.766,2.766l3.96,3.96a1.956,1.956,0,0,0,2.766,0l9.747-9.747A1.956,1.956,0,0,0,122.307,147.24Z" transform="translate(-105.261 -146.667)"/></g></g><g transform="translate(56.91 71.98)"><g transform="translate(0)"><path class="a" d="M121.346,368h-9.389A1.956,1.956,0,0,0,110,369.956v9.389a1.956,1.956,0,0,0,1.956,1.956h9.389a1.956,1.956,0,0,0,1.956-1.956v-9.389A1.956,1.956,0,0,0,121.346,368Zm-1.956,9.389h-5.477v-5.477h5.477Z" transform="translate(-110.001 -368)"/></g></g><g transform="translate(56.91 50.856)"><g transform="translate(0)"><path class="a" d="M121.346,260h-9.389A1.956,1.956,0,0,0,110,261.956v9.389a1.956,1.956,0,0,0,1.956,1.956h9.389a1.956,1.956,0,0,0,1.956-1.956v-9.389A1.956,1.956,0,0,0,121.346,260Zm-1.956,9.389h-5.477v-5.477h5.477Z" transform="translate(-110.001 -260)"/></g></g></g></svg>