<svg xmlns="http://www.w3.org/2000/svg" width="561.81" height="186.32" viewBox="0 0 561.81 186.32"><defs><style>.a{fill:#bbb9ba;}.b{fill:#1d498c;}.c{fill:#1d4980;}.d{fill:#adabac;}</style></defs><g transform="translate(-1082 -234.184)"><g transform="translate(1082 234.184)"><path class="a" d="M697.8,820.943l-5.6,22.725H656.534l-8.839,35.746-49,35.983c5.524-5.366,12.706-12.705,14.914-20.359l12.7-51.37H600.666l68.967-50.66c-6.392,5.76-16.808,15.072-21.068,22.569a8.839,8.839,0,0,0-1.106,3.392,1.7,1.7,0,0,0,1.263,1.974Zm-89.011,93.664,55.79-41.033c-2.446,2.762-4.893,5.366-7.181,7.97-2.919,3.314-5.84,6.629-8.523,10.1a41.525,41.525,0,0,0-7.891,14.993l-7.5,30.222H603.269Z" transform="translate(-381.843 -793.008)"/><path class="a" d="M224.885,854.289,296.3,800.125a168.989,168.989,0,0,0-16.807,15.44c-9.705,10.049-19.174,22.3-23.831,35.865l-21.069,88.231H205c-3-8.9-5.682-16.912-7.97-23.937-1.421-4.248-2.526-7.6-3.393-10.131-.868-2.451-1.579-4.739-2.288-6.781-.159-.49-2.447-7.189-2.447-7.271-.71-2.124-1.736-3.187-3.156-3.187-2.605,0-7.971,5.065-9.548,7.027a15.677,15.677,0,0,0-2.762,4.738l-9.469,39.541H140.295a91.98,91.98,0,0,0-29.908,6.29,89.562,89.562,0,0,0-10.1,4.248c-2.6,1.389-4.26,2.206-4.892,2.615L208,867.2l8.049,24.263Zm0,0L296.3,800.125a168.989,168.989,0,0,0-16.807,15.44c-9.705,10.049-19.174,22.3-23.831,35.865l-21.069,88.231H205c-3-8.9-5.682-16.912-7.97-23.937-1.421-4.248-2.526-7.6-3.393-10.131-.868-2.451-1.579-4.739-2.288-6.781-.159-.49-2.447-7.189-2.447-7.271-.71-2.124-1.736-3.187-3.156-3.187-2.605,0-7.971,5.065-9.548,7.027a15.677,15.677,0,0,0-2.762,4.738l-9.469,39.541H140.295a91.98,91.98,0,0,0-29.908,6.29,89.562,89.562,0,0,0-10.1,4.248c-2.6,1.389-4.26,2.206-4.892,2.615L208,867.2l8.049,24.263Zm-47.819,30.637-36.93,28.021,22.332-93.3h29.749l14.2,42.891-21.621,16.5-3.709-11.111Zm85.774-65.275-50.9,38.724c8.049-7.925,16.887-24.591,20.6-36.03l.632-2.695Z" transform="translate(-95.395 -797.059)"/><path class="b" d="M812.825,857.053h36.561c22.864,0,39.862,8.1,39.862,29.807,0,30.545-24.844,43.963-52,43.963H822.467l-8.432,42.755H789.52Zm26.045,54.391c17.328,0,26.158-8.328,26.158-20.986,0-9.778-6.9-14.026-19.449-14.026H833.32l-6.833,35.012Zm-4.041,13.719,17.676-15.7,25.135,64.114H851.821Z" transform="translate(-490.452 -829.459)"/><path class="a" d="M1172.618,834.1a218.346,218.346,0,0,0-16.1,14.993c-4.734,4.577-11.679,12.152-14.125,18.465a9.648,9.648,0,0,0-.948,4.814c1.421,7.732.948,16.333-1.42,25.881l-1.261,5.287c-7.892,31.959-32.827,56.974-66.522,56.974-11.442,0-22.8-3-31.09-11.284-1.341-1.342-3.392-1.974-6.154-1.974a36.289,36.289,0,0,0-10.416,1.974,130.385,130.385,0,0,0-23.594,10.889ZM1032.08,931.715c-1.737-7.892-1.5-16.809.709-26.673l1.658-6.47c7.97-32.037,32.825-57.052,66.678-57.052,12.783,0,25.883,4.025,33.695,14.678l-40.086,29.433c3.945-3.63,9.311-8.68,11.441-13.73.711-1.657.711-3.076-.078-4.1-2.921-2.524-6.55-3.235-10.259-3.235-17.439,0-25.8,16.1-29.829,30.695l-2.129,8.444c-.238.947-.474,1.894-.632,2.762-.236.946-.395,1.893-.631,2.761Zm77.252-33.222a74.34,74.34,0,0,0,2.051-11.837,1.819,1.819,0,0,0-2.051-1.577,6.555,6.555,0,0,0-2.21.473,14.206,14.206,0,0,0-2.524,1.5c-.79.552-2.21,1.657-4.182,3.156-2.051,1.5-4.341,3.235-6.945,5.209s-5.366,4.1-8.285,6.234c-2.919,2.209-5.681,4.261-8.128,6.154-2.524,1.972-4.655,3.63-6.47,4.971a62.72,62.72,0,0,0-7.26,6.472,4.844,4.844,0,0,0-1.341,4.182c.473,9.469,6.155,14.36,15.467,14.36,17.991,0,26.671-19.017,30.538-34.009Z" transform="translate(-610.808 -816.397)"/><path class="b" d="M504.21,856.431h24.515l-23.3,116.525H480.9Z" transform="translate(-314.805 -829.105)"/><path class="b" d="M1172.618,834.1a218.346,218.346,0,0,0-16.1,14.993c-4.734,4.577-11.679,12.152-14.125,18.465a9.648,9.648,0,0,0-.948,4.814c1.421,7.732.948,16.333-1.42,25.881l-1.261,5.287c-7.892,31.959-32.827,56.974-66.522,56.974-11.442,0-22.8-3-31.09-11.284-1.341-1.342-3.392-1.974-6.154-1.974a36.289,36.289,0,0,0-10.416,1.974,130.385,130.385,0,0,0-23.594,10.889Zm-63.286,64.39a74.34,74.34,0,0,0,2.051-11.837,1.819,1.819,0,0,0-2.051-1.577,6.555,6.555,0,0,0-2.21.473,14.206,14.206,0,0,0-2.524,1.5c-.79.552-2.21,1.657-4.182,3.156-2.051,1.5-4.341,3.235-6.945,5.209s-5.366,4.1-8.285,6.234c-2.919,2.209-5.681,4.261-8.128,6.154-2.524,1.972-4.655,3.63-6.47,4.971a62.72,62.72,0,0,0-7.26,6.472,4.844,4.844,0,0,0-1.341,4.182c.473,9.469,6.155,14.36,15.467,14.36,17.991,0,26.671-19.017,30.538-34.009Z" transform="translate(-610.808 -816.397)"/><path class="b" d="M216.049,891.461,208,867.2,95.4,952.815c.631-.408,2.288-1.226,4.892-2.615a89.47,89.47,0,0,1,10.1-4.248,91.98,91.98,0,0,1,29.908-6.29h23.672l9.469-39.541a15.693,15.693,0,0,1,2.762-4.738c1.578-1.962,6.943-7.026,9.549-7.026,1.42,0,2.445,1.062,3.156,3.186,0,.082,2.288,6.78,2.447,7.271.709,2.042,1.42,4.33,2.288,6.781.868,2.532,1.972,5.883,3.393,10.131,2.288,7.025,4.971,15.032,7.97,23.937h29.59L255.66,851.43c4.656-13.561,14.125-25.816,23.831-35.865a169.04,169.04,0,0,1,16.807-15.44l-71.412,54.164Z" transform="translate(-95.396 -797.059)"/><path class="b" d="M621.834,808.391l-.552,1.972c-1.657,7.338-6.786,15.071-11.52,20.753-2.052,2.446-4.1,4.893-6.155,7.26s-3.867,4.5-5.524,6.312-2.762,3-3.235,3.473l54.132-39.77Z" transform="translate(-379.655 -801.763)"/><path class="b" d="M609.316,1043.283h30.222l7.5-30.222a41.524,41.524,0,0,1,7.891-14.993c2.683-3.471,5.6-6.786,8.523-10.1,2.288-2.6,4.735-5.207,7.181-7.97l-55.79,41.033Z" transform="translate(-387.89 -899.432)"/></g><g transform="translate(1089.727 386.498)"><path class="c" d="M255.251,481.839l1.867-7.52h4.347a14.458,14.458,0,0,0,6.682-2.463c1.143-.643,2.271-1.3,3.4-1.98Zm19.272.579c-1.3,5.33-6.471,7.617-11.511,7.617h-1.482a2.893,2.893,0,0,0-1.111.209l-8.84,6.472,2.561-10.385c0-.418-.29-.595-.676-.595a2.59,2.59,0,0,0-1.095.306l-1.352.628c-.435.208-.806.386-1.127.531-.371.177-.725.338-1.031.483l18.193-13.364c2.931.064,6.119.918,7.31,3.881A6.664,6.664,0,0,1,274.522,482.418Zm-6.488-2.527a2.436,2.436,0,0,0-2.125-.934h-3.784l-1.578,6.424h3.639a3.826,3.826,0,0,0,4.106-3.011A2.959,2.959,0,0,0,268.034,479.89Zm-9.274,12.7-1.337,5.378h-3.429a19.41,19.41,0,0,0-5.3,2.447c-1.143.661-2.335,1.385-3.59,2.191Z" transform="translate(-245.107 -468.603)"/><path class="d" d="M280.268,512.6l9.178-6.779c-.483.531-.934,1.031-1.369,1.53-.258.29-.467.531-.628.741-.177.209-.338.4-.516.611a9.22,9.22,0,0,0-2.109,3.9Zm5.7-5.2-9.193,6.762c.676-.74,1.352-1.5,2.012-2.27l.515-.612a9.376,9.376,0,0,0,2.11-3.881Z" transform="translate(-257.722 -482.92)"/><path class="c" d="M323.119,473.461l-1.143,4.636H314.7l-1.8,7.294-10,7.342a10.913,10.913,0,0,0,3.042-4.155l2.593-10.481H303.3l14.072-10.337a23.808,23.808,0,0,0-4.3,4.6,1.836,1.836,0,0,0-.225.693.349.349,0,0,0,.257.4Zm-15.038,0-11.045,8.114c.1-.1.322-.338.66-.708s.709-.806,1.127-1.289.837-.982,1.256-1.481a11.091,11.091,0,0,0,2.35-4.234l.113-.4Zm-3.122,19.111,11.383-8.372c-.5.564-1,1.094-1.466,1.627-.6.676-1.191,1.352-1.738,2.061a8.436,8.436,0,0,0-1.611,3.059L310,497.112h-6.166Z" transform="translate(-265.794 -467.76)"/></g></g></svg>