<svg xmlns="http://www.w3.org/2000/svg" xmlns:xlink="http://www.w3.org/1999/xlink" width="282" height="171" viewBox="0 0 282 171"><defs><style>.a{fill:#fff;}.b{fill:#f0f2f8;}.c{fill:#43425d;opacity:0.1;}.d{filter:url(#a);}</style><filter id="a" x="0" y="0" width="282" height="171" filterUnits="userSpaceOnUse"><feOffset dy="2" input="SourceAlpha"/><feGaussianBlur stdDeviation="3" result="b"/><feFlood flood-opacity="0.039"/><feComposite operator="in" in2="b"/><feComposite in="SourceGraphic"/></filter></defs><g transform="translate(-261 -167)"><g class="d" transform="matrix(1, 0, 0, 1, 261, 167)"><rect class="a" width="264" height="153" transform="translate(9 7)"/></g><g transform="translate(274.524 179.965)"><rect class="b" width="254" height="140" transform="translate(0.476 0.035)"/><g transform="translate(104.054 45.21)"><path class="c" d="M26.509,8.722c0-.086.014-.173.014-.259a8.358,8.358,0,0,0-15.93-3.641A4.3,4.3,0,0,0,4.4,7.988,6.551,6.551,0,0,0,6.481,20.725H13.9V14.968h-3.49L16.22,8.945l5.807,6.016h-3.49v5.757h7.987a6,6,0,0,0-.014-12Z" transform="translate(6.987)"/></g></g></g></svg>