<svg xmlns="http://www.w3.org/2000/svg" width="17.372" height="18.902" viewBox="0 0 17.372 18.902"><defs><style>.a{fill:#fff;}</style></defs><path class="a" d="M8.685,0H8.677a8.982,8.982,0,0,0-6.14,2.355,7.583,7.583,0,0,0-.01,11.311l1.139,1.045a1.227,1.227,0,0,0,.827.309,1.3,1.3,0,0,0,.3-.035,1.112,1.112,0,0,0,.82-.752,3.638,3.638,0,0,1,.759-1.567c.446.426,1.155,2.069,1.155,4.666,0,.155,0,.3-.009.446a1,1,0,0,0,.357.828,1.249,1.249,0,0,0,.817.3,1.193,1.193,0,0,0,.821-.311l5.319-4.926a7.573,7.573,0,0,0,.011-11.311A9.023,9.023,0,0,0,8.685,0ZM4.043,12.064A5.625,5.625,0,0,1,2.315,7.929a5.693,5.693,0,0,1,1.878-4.1A6.572,6.572,0,0,1,8.679,2.1h.006a6.6,6.6,0,0,1,4.5,1.723,5.606,5.606,0,0,1-.01,8.371L9.717,15.4c-.412-3.065-1.665-4.9-3.351-4.9a2.673,2.673,0,0,0-2.322,1.56Z" transform="translate(17.372 18.902) rotate(180)"/></svg>