<svg xmlns="http://www.w3.org/2000/svg" width="22.035" height="31.219" viewBox="0 0 22.035 31.219"><defs><style>.a{fill:#fff;}</style></defs><g transform="translate(-75.294)"><path class="a" d="M97.329,9.046a2.8,2.8,0,0,0-.474-1.564L94.574,4.295V.915A.915.915,0,0,0,93.659,0H78.964a.915.915,0,0,0-.915.915v3.38c-1.759,2.458-2.287,3.194-2.306,3.222a2.808,2.808,0,0,0-.45,1.529v19.4a2.75,2.75,0,0,0,2.719,2.775h16.6a2.75,2.75,0,0,0,2.719-2.775ZM77.124,23.42V12.392h1.844V23.42ZM80.8,12.392H91.826V23.42H80.8Zm12.858,0H95.5V23.42H93.655Zm-.911-8.718H90.9V1.83h1.844Zm-5.518,0V1.83H89.07V3.674Zm-1.83,0H83.553V1.83H85.4ZM81.723,1.83V3.674H79.879V1.83Zm-4.453,6.7L79.434,5.5H93.189l2.164,3.023c.195.314.147.446.147,2.036H77.124C77.124,8.966,77.076,8.839,77.27,8.526ZM94.61,29.39h-16.6a.919.919,0,0,1-.889-.945v-3.2H95.5v3.2A.919.919,0,0,1,94.61,29.39Z" transform="translate(0)"/><path class="a" d="M202.189,323.765h-5.511a.915.915,0,1,0,0,1.83h5.511a.915.915,0,1,0,0-1.83Z" transform="translate(-113.123 -304.019)"/><path class="a" d="M202.189,233.412h-5.511a.915.915,0,1,0,0,1.83h5.511a.915.915,0,1,0,0-1.83Z" transform="translate(-113.123 -219.176)"/></g></svg>