<svg xmlns="http://www.w3.org/2000/svg" width="22.038" height="31.221" viewBox="0 0 22.038 31.221">
  <g id="protein_active" transform="translate(-75.293)">
    <path id="Path_5" data-name="Path 5" d="M97.329,9.046a2.8,2.8,0,0,0-.474-1.564L94.574,4.3V.915A.915.915,0,0,0,93.659,0H78.964a.915.915,0,0,0-.915.915V4.3c-1.759,2.458-2.287,3.194-2.306,3.222a2.808,2.808,0,0,0-.45,1.529v19.4a2.75,2.75,0,0,0,2.719,2.775h16.6a2.75,2.75,0,0,0,2.719-2.775ZM77.124,23.42V12.392h1.844V23.42ZM80.8,12.392H91.826V23.42H80.8Zm12.858,0H95.5V23.42H93.655Zm-.911-8.718H90.9V1.83h1.844Zm-5.518,0V1.83H89.07V3.674Zm-1.83,0H83.553V1.83H85.4ZM81.723,1.83V3.674H79.879V1.83ZM77.27,8.53,79.434,5.5H93.189l2.164,3.023c.195.314.147.446.147,2.036H77.124c0-1.593-.048-1.72.146-2.033ZM94.61,29.39H78.01a.919.919,0,0,1-.889-.945v-3.2H95.5v3.2a.919.919,0,0,1-.89.945Z" fill="#1d4980"/>
    <path id="Path_6" data-name="Path 6" d="M202.189,323.765h-5.511a.915.915,0,1,0,0,1.83h5.511a.915.915,0,0,0,0-1.83Z" transform="translate(-113.123 -304.019)" fill="#1d4980"/>
    <path id="Path_7" data-name="Path 7" d="M202.189,233.412h-5.511a.915.915,0,1,0,0,1.83h5.511a.915.915,0,0,0,0-1.83Z" transform="translate(-113.123 -219.176)" fill="#1d4980"/>
  </g>
</svg>
