<svg xmlns="http://www.w3.org/2000/svg" width="27.385" height="26.14" viewBox="0 0 27.385 26.14"><defs><style>.a{fill:#1d4980;}</style></defs><path class="a" d="M143.56,0H129.867A1.867,1.867,0,0,0,128,1.867V24.273a1.867,1.867,0,0,0,1.867,1.867H133.6V24.9h-3.734a.622.622,0,0,1-.622-.622V1.867a.622.622,0,0,1,.622-.622H143.56a.622.622,0,0,1,.622.622V24.273a.622.622,0,0,1-.622.622h-3.734V26.14h3.734a1.867,1.867,0,0,0,1.867-1.867V1.867A1.867,1.867,0,0,0,143.56,0Zm0,0" transform="translate(-118.042)"/><path class="a" d="M1.867,53.161H8.713V51.916H1.867a.622.622,0,0,1-.622-.622V33.867a.622.622,0,0,1,.622-.622H8.713V32H1.867A1.867,1.867,0,0,0,0,33.867V51.294A1.867,1.867,0,0,0,1.867,53.161Zm0,0" transform="translate(0 -29.51)"/><path class="a" d="M192,40h1.245v1.245H192Zm0,0" transform="translate(-177.063 -36.888)"/><path class="a" d="M224,40h4.979v1.245H224Zm0,0" transform="translate(-206.573 -36.888)"/><path class="a" d="M168,80h1.245v2.49H168Zm0,0" transform="translate(-154.93 -73.776)"/><path class="a" d="M200,80h1.245v2.49H200Zm0,0" transform="translate(-184.44 -73.776)"/><path class="a" d="M232,80h1.245v2.49H232Zm0,0" transform="translate(-213.951 -73.776)"/><path class="a" d="M264,80h1.245v2.49H264Zm0,0" transform="translate(-243.461 -73.776)"/><path class="a" d="M296,80h1.245v2.49H296Zm0,0" transform="translate(-272.972 -73.776)"/><path class="a" d="M232,136h4.357v1.245H232Zm0,0" transform="translate(-213.951 -125.419)"/><path class="a" d="M193.867,235.734H197.6a1.867,1.867,0,0,0,0-3.734h-3.734a1.867,1.867,0,0,0,0,3.734Zm0-2.49H197.6a.622.622,0,0,1,0,1.245h-3.734a.622.622,0,0,1,0-1.245Zm0,0" transform="translate(-177.063 -213.951)"/><path class="a" d="M88,64h1.867v1.245H88Zm0,0" transform="translate(-81.154 -59.021)"/><path class="a" d="M32,104h1.245v1.867H32Zm0,0" transform="translate(-29.51 -95.909)"/><path class="a" d="M64,104h1.245v1.867H64Zm0,0" transform="translate(-59.021 -95.909)"/><path class="a" d="M96,104h1.245v1.867H96Zm0,0" transform="translate(-88.531 -95.909)"/><path class="a" d="M56,64h1.245v1.245H56Zm0,0" transform="translate(-51.643 -59.021)"/><path class="a" d="M41.867,219.734H45.6V218.49H41.867a.622.622,0,1,1,0-1.245H45.6V216H41.867a1.867,1.867,0,1,0,0,3.734Zm0,0" transform="translate(-36.888 -199.196)"/><path class="a" d="M192,136h1.867v1.245H192Zm0,0" transform="translate(-177.063 -125.419)"/><path class="a" d="M192,168h7.469v1.245H192Zm0,0" transform="translate(-177.063 -154.93)"/><path class="a" d="M208,200h4.979v1.245H208Zm0,0" transform="translate(-191.818 -184.44)"/><path class="a" d="M64,152h3.734v1.245H64Zm0,0" transform="translate(-59.021 -140.175)"/><path class="a" d="M80,184h2.49v1.245H80Zm0,0" transform="translate(-73.776 -169.685)"/></svg>