<svg id="subscription_active" xmlns="http://www.w3.org/2000/svg" width="27.385" height="26.14" viewBox="0 0 27.385 26.14">
  <path id="Path_9" data-name="Path 9" d="M143.56,0H129.867A1.867,1.867,0,0,0,128,1.867V24.273a1.867,1.867,0,0,0,1.867,1.867H133.6V24.9h-3.734a.622.622,0,0,1-.622-.622V1.867a.622.622,0,0,1,.622-.622H143.56a.622.622,0,0,1,.622.622V24.273a.622.622,0,0,1-.622.622h-3.734V26.14h3.734a1.867,1.867,0,0,0,1.867-1.867V1.867A1.867,1.867,0,0,0,143.56,0Zm0,0" transform="translate(-118.042)" fill="#1d4980"/>
  <path id="Path_10" data-name="Path 10" d="M1.867,53.161H8.713V51.916H1.867a.622.622,0,0,1-.622-.622V33.867a.622.622,0,0,1,.622-.622H8.713V32H1.867A1.867,1.867,0,0,0,0,33.867V51.294a1.867,1.867,0,0,0,1.867,1.867Zm0,0" transform="translate(0 -29.51)" fill="#1d4980"/>
  <path id="Path_11" data-name="Path 11" d="M192,40h1.245v1.245H192Zm0,0" transform="translate(-177.063 -36.888)" fill="#1d4980"/>
  <path id="Path_12" data-name="Path 12" d="M224,40h4.979v1.245H224Zm0,0" transform="translate(-206.573 -36.888)" fill="#1d4980"/>
  <path id="Path_13" data-name="Path 13" d="M168,80h1.245v2.49H168Zm0,0" transform="translate(-154.93 -73.776)" fill="#1d4980"/>
  <path id="Path_14" data-name="Path 14" d="M200,80h1.245v2.49H200Zm0,0" transform="translate(-184.44 -73.776)" fill="#1d4980"/>
  <path id="Path_15" data-name="Path 15" d="M232,80h1.245v2.49H232Zm0,0" transform="translate(-213.951 -73.776)" fill="#1d4980"/>
  <path id="Path_16" data-name="Path 16" d="M264,80h1.245v2.49H264Zm0,0" transform="translate(-243.461 -73.776)" fill="#1d4980"/>
  <path id="Path_17" data-name="Path 17" d="M296,80h1.245v2.49H296Zm0,0" transform="translate(-272.972 -73.776)" fill="#1d4980"/>
  <path id="Path_18" data-name="Path 18" d="M232,136h4.357v1.245H232Zm0,0" transform="translate(-213.951 -125.419)" fill="#1d4980"/>
  <path id="Path_19" data-name="Path 19" d="M193.867,235.734H197.6a1.867,1.867,0,1,0,0-3.734h-3.734a1.867,1.867,0,0,0,0,3.734Zm0-2.49H197.6a.622.622,0,1,1,0,1.245h-3.734a.623.623,0,0,1,0-1.245Zm0,0" transform="translate(-177.063 -213.951)" fill="#1d4980"/>
  <path id="Path_20" data-name="Path 20" d="M88,64h1.867v1.245H88Zm0,0" transform="translate(-81.154 -59.021)" fill="#1d4980"/>
  <path id="Path_21" data-name="Path 21" d="M32,104h1.245v1.867H32Zm0,0" transform="translate(-29.51 -95.909)" fill="#1d4980"/>
  <path id="Path_22" data-name="Path 22" d="M64,104h1.245v1.867H64Zm0,0" transform="translate(-59.021 -95.909)" fill="#1d4980"/>
  <path id="Path_23" data-name="Path 23" d="M96,104h1.245v1.867H96Zm0,0" transform="translate(-88.531 -95.909)" fill="#1d4980"/>
  <path id="Path_24" data-name="Path 24" d="M56,64h1.245v1.245H56Zm0,0" transform="translate(-51.643 -59.021)" fill="#1d4980"/>
  <path id="Path_25" data-name="Path 25" d="M41.867,219.734H45.6V218.49H41.867a.623.623,0,0,1,0-1.245H45.6V216H41.867a1.867,1.867,0,0,0,0,3.734Zm0,0" transform="translate(-36.888 -199.196)" fill="#1d4980"/>
  <path id="Path_26" data-name="Path 26" d="M192,136h1.867v1.245H192Zm0,0" transform="translate(-177.063 -125.419)" fill="#1d4980"/>
  <path id="Path_27" data-name="Path 27" d="M192,168h7.469v1.245H192Zm0,0" transform="translate(-177.063 -154.93)" fill="#1d4980"/>
  <path id="Path_28" data-name="Path 28" d="M208,200h4.979v1.245H208Zm0,0" transform="translate(-191.818 -184.44)" fill="#1d4980"/>
  <path id="Path_29" data-name="Path 29" d="M64,152h3.734v1.245H64Zm0,0" transform="translate(-59.021 -140.175)" fill="#1d4980"/>
  <path id="Path_30" data-name="Path 30" d="M80,184h2.49v1.245H80Zm0,0" transform="translate(-73.776 -169.685)" fill="#1d4980"/>
</svg>
