<svg xmlns="http://www.w3.org/2000/svg" width="33.411" height="34.998" viewBox="0 0 33.411 34.998">
  <g id="workout_active" transform="translate(-6.367 -5.25)">
    <path id="Path_31" data-name="Path 31" d="M31.184,41.771a1.9,1.9,0,0,1-1.843-1.432l-2.384-9.384H24.292l-2.385,9.384a1.9,1.9,0,1,1-3.688-.919l2.6-10.592-.4-8.53-5.03-7.091a1.731,1.731,0,0,1,2.736-2.117l5.328,6.471h4.342L33.117,11.1a1.731,1.731,0,0,1,2.74,2.112L30.832,20.3l-.4,8.53,2.595,10.591a1.909,1.909,0,0,1-1.272,2.262,1.879,1.879,0,0,1-.571.088ZM23.88,29.9h3.49a.53.53,0,0,1,.514.4l2.486,9.784A.841.841,0,0,0,32,39.672L29.387,29.007a.519.519,0,0,1-.014-.151l.408-8.762a.531.531,0,0,1,.1-.283L35,12.594a.671.671,0,0,0-1.06-.821l-5.482,6.652a.532.532,0,0,1-.409.194H23.2a.532.532,0,0,1-.4-.194l-5.485-6.657a.671.671,0,0,0-1.056.826l5.116,7.217a.524.524,0,0,1,.1.283l.41,8.761a.545.545,0,0,1-.015.151L19.247,39.672a.84.84,0,0,0,1.225.933.831.831,0,0,0,.405-.527l2.485-9.784a.53.53,0,0,1,.517-.4Z" transform="translate(-2.552 -1.532)" fill="#1d4980"/>
    <path id="Path_32" data-name="Path 32" d="M37.437,11.534H11.273a.53.53,0,0,1,0-1.06H37.437a.53.53,0,0,1,0,1.06Z" transform="translate(-1.283 -1.532)" fill="#1d4980"/>
    <path id="Path_33" data-name="Path 33" d="M9.32,13.7H7.567a1.2,1.2,0,0,1-1.2-1.2V6.45a1.2,1.2,0,0,1,1.2-1.2H9.32a1.2,1.2,0,0,1,1.2,1.2v6.045a1.2,1.2,0,0,1-1.2,1.2ZM7.567,6.31a.141.141,0,0,0-.141.141v6.044a.141.141,0,0,0,.141.141H9.32a.141.141,0,0,0,.141-.141V6.45a.141.141,0,0,0-.141-.141Z" fill="#1d4980"/>
    <path id="Path_34" data-name="Path 34" d="M50.709,13.7H48.956a1.2,1.2,0,0,1-1.2-1.2V6.45a1.2,1.2,0,0,1,1.2-1.2H50.71a1.2,1.2,0,0,1,1.2,1.2v6.045a1.2,1.2,0,0,1-1.2,1.205ZM48.956,6.31a.141.141,0,0,0-.141.141v6.044a.141.141,0,0,0,.141.141H50.71a.141.141,0,0,0,.141-.141V6.45a.141.141,0,0,0-.141-.141Z" transform="translate(-12.132)" fill="#1d4980"/>
    <path id="Path_35" data-name="Path 35" d="M28.664,16.917A3.222,3.222,0,1,1,31.885,13.7a3.222,3.222,0,0,1-3.221,3.217Zm0-5.383A2.162,2.162,0,1,0,30.825,13.7a2.162,2.162,0,0,0-2.161-2.166Z" transform="translate(-5.592 -1.532)" fill="#1d4980"/>
  </g>
</svg>
