<svg xmlns="http://www.w3.org/2000/svg" width="20.192" height="20.192" viewBox="0 0 20.192 20.192"><defs><style>.a{fill:#1d4980;}</style></defs><g transform="translate(0 0)"><g transform="translate(0 0)"><path class="a" d="M20.083,12.61a6.236,6.236,0,0,0-4.04-4.663l-.073-.025a5.953,5.953,0,0,1-3.723-3.768A6.276,6.276,0,0,0,7.583.115C5.572-.258,1.575.34.957.955S-.257,5.565.115,7.579a6.309,6.309,0,0,0,4.113,4.686,5.952,5.952,0,0,1,3.723,3.768,6.2,6.2,0,0,0,4.663,4.038,8.542,8.542,0,0,0,1.528.12c2.1,0,4.645-.518,5.094-.964C19.844,18.622,20.443,14.631,20.083,12.61Zm-7.316,6.632a5.452,5.452,0,0,1-4.044-3.554,6.781,6.781,0,0,0-4.283-4.24A5.418,5.418,0,0,1,.948,7.429a14.833,14.833,0,0,1,.481-5.6,13.377,13.377,0,0,0,2.456.5c.587.088,1.224.184,1.865.3A5.444,5.444,0,0,1,9.793,6.184a6.782,6.782,0,0,0,4.283,4.239,5.379,5.379,0,0,1,3.492,4.017c.12.673.173,1.165.219,1.6a9.139,9.139,0,0,0,.622,2.693A14.461,14.461,0,0,1,12.766,19.242Zm6.173-1.555a8.576,8.576,0,0,1-.317-1.738c-.048-.447-.1-.954-.227-1.657a6.266,6.266,0,0,0-4.111-4.687,5.951,5.951,0,0,1-3.721-3.767A6.272,6.272,0,0,0,5.9,1.8c-.65-.12-1.3-.217-1.893-.307-.488-.073-1.032-.156-1.488-.243A17.324,17.324,0,0,1,6.066.841,7.686,7.686,0,0,1,7.431.947,5.446,5.446,0,0,1,11.475,4.5a6.745,6.745,0,0,0,4.218,4.217l.064.022h0a5.379,5.379,0,0,1,3.491,4.017A14.746,14.746,0,0,1,18.939,17.688Z" transform="translate(0 0)"/><path class="a" d="M279.557,385.7a1.983,1.983,0,0,1-1.4-1.367.421.421,0,0,0-.824.171,2.791,2.791,0,0,0,1.968,2,.411.411,0,0,0,.127.02.421.421,0,0,0,.127-.822Z" transform="translate(-266.389 -368.854)"/><path class="a" d="M258.1,279.848a.421.421,0,0,0,.127-.822,1.983,1.983,0,0,1-1.4-1.367.421.421,0,0,0-.824.171,2.792,2.792,0,0,0,1.968,2A.415.415,0,0,0,258.1,279.848Z" transform="translate(-245.898 -266.387)"/><path class="a" d="M130.224,193.7a1.983,1.983,0,0,1-1.4-1.367.421.421,0,1,0-.824.171,2.792,2.792,0,0,0,1.968,2,.415.415,0,0,0,.127.02.421.421,0,0,0,.127-.822Z" transform="translate(-122.945 -184.422)"/><path class="a" d="M149.88,106.679a.421.421,0,1,0-.254.8,1.983,1.983,0,0,1,1.4,1.367.421.421,0,0,0,.412.335.436.436,0,0,0,.086-.009.421.421,0,0,0,.327-.5A2.792,2.792,0,0,0,149.88,106.679Z" transform="translate(-143.443 -102.452)"/><path class="a" d="M384.546,362.677a.421.421,0,1,0-.254.8.781.781,0,0,1,.556.526.421.421,0,0,0,.412.335.438.438,0,0,0,.086-.009.421.421,0,0,0,.327-.5A1.605,1.605,0,0,0,384.546,362.677Z" transform="translate(-368.855 -348.355)"/><path class="a" d="M44.049,128.861a.781.781,0,0,1-.556-.526.421.421,0,1,0-.824.171,1.6,1.6,0,0,0,1.126,1.157.413.413,0,0,0,.127.02.421.421,0,0,0,.127-.822Z" transform="translate(-40.978 -122.952)"/></g></g></svg>