<svg xmlns="http://www.w3.org/2000/svg" width="24.112" height="24.112" viewBox="0 0 24.112 24.112"><defs><style>.a{fill:#1d4980;}</style></defs><g transform="translate(0 0)"><path class="a" d="M12.763,6.4A6.381,6.381,0,1,0,5.7,12.724V17H3.579a.706.706,0,1,0,0,1.413H5.7v2.119a.706.706,0,0,0,1.413,0V18.414H9.23A.706.706,0,1,0,9.23,17H7.111V12.723A6.367,6.367,0,0,0,12.763,6.4Zm-11.35,0A4.968,4.968,0,1,1,6.4,11.35,5,5,0,0,1,1.413,6.4Z" transform="translate(0 0)"/><path class="a" d="M248.064,69.515v-6.1l1.62,1.62a.706.706,0,1,0,1-1l-2.826-2.826a.706.706,0,0,0-1,0l-2.826,2.826a.706.706,0,0,0,1,1l1.62-1.62v6.1a6.383,6.383,0,0,0,.706,12.723,6.38,6.38,0,0,0,.706-12.724Zm-.706,11.311a4.968,4.968,0,1,1,4.992-4.992A4.974,4.974,0,0,1,247.358,80.826Z" transform="translate(-229.651 -58.127)"/></g></svg>