<svg xmlns="http://www.w3.org/2000/svg" width="21.331" height="28.484" viewBox="0 0 21.331 28.484"><defs><style>.a{fill:#1d4980;}</style></defs><g transform="translate(0 0)"><path class="a" d="M146.537,178.487a3.244,3.244,0,1,0-3.244-3.244A3.244,3.244,0,0,0,146.537,178.487Zm0-5.226a1.989,1.989,0,1,1-1.989,1.989A1.989,1.989,0,0,1,146.537,173.261Zm0,0" transform="translate(-135.871 -163.367)"/><path class="a" d="M113.649,325.122a4.869,4.869,0,0,0-3.526,1.474,5.2,5.2,0,0,0-1.456,3.683.629.629,0,0,0,.627.627H118a.629.629,0,0,0,.627-.627,5.2,5.2,0,0,0-1.456-3.683A4.868,4.868,0,0,0,113.649,325.122Zm-3.683,4.53a3.837,3.837,0,0,1,1.054-2.177,3.7,3.7,0,0,1,5.257,0,3.857,3.857,0,0,1,1.054,2.177Zm0,0" transform="translate(-102.984 -308.804)"/><path class="a" d="M13.612,0H-1.445A3.138,3.138,0,0,0-4.582,3.137v22.21a3.138,3.138,0,0,0,3.137,3.137H13.612a3.138,3.138,0,0,0,3.137-3.137V3.137A3.138,3.138,0,0,0,13.612,0Zm1.882,25.347a1.888,1.888,0,0,1-1.882,1.882H-1.445a1.888,1.888,0,0,1-1.882-1.882V3.137A1.888,1.888,0,0,1-1.445,1.255H13.612a1.888,1.888,0,0,1,1.882,1.882Zm0,0" transform="translate(4.582 0)"/><path class="a" d="M143.92,60.13h5.019a.627.627,0,1,0,0-1.255H143.92a.627.627,0,0,0,0,1.255Zm0,0" transform="translate(-135.871 -55.92)"/></g></svg>