<svg xmlns="http://www.w3.org/2000/svg" width="16.5" height="24.848" viewBox="0 0 16.5 24.848"><defs><style>.a{fill:#d96685;}</style></defs><g transform="translate(-86 0)"><g transform="translate(85.999 0)"><path class="a" d="M100.086,14.082a8.265,8.265,0,1,0-6.808,2.356V19.2H91.337a.971.971,0,1,0,0,1.942h1.942v2.735a.971.971,0,0,0,1.942,0V21.142h1.942a.971.971,0,1,0,0-1.942H95.221V16.438A8.215,8.215,0,0,0,100.086,14.082Zm-10.3-1.373a6.311,6.311,0,1,1,8.926,0A6.316,6.316,0,0,1,89.787,12.709Z" transform="translate(-85.999 0)"/></g></g></svg>