<svg xmlns="http://www.w3.org/2000/svg" xmlns:xlink="http://www.w3.org/1999/xlink" width="24.951" height="18" viewBox="0 0 24.951 18"><defs><style>.a,.d{fill:none;}.b{clip-path:url(#a);}.c{fill:#1d4980;}.d{stroke:#529880;stroke-linecap:round;stroke-width:2px;}</style><clipPath id="a"><rect class="a" width="16" height="18"/></clipPath></defs><g transform="translate(-289 -267)"><g class="b" transform="translate(289 267)"><path class="c" d="M0,18a6.824,6.824,0,0,1,6.857-6.75H9.142A6.824,6.824,0,0,1,16,18Zm2.971-2.251H13.143a4.623,4.623,0,0,0-4-2.25H6.971A4.626,4.626,0,0,0,2.971,15.749ZM3.428,5.624V4.5a4.572,4.572,0,0,1,9.143,0V5.624a4.572,4.572,0,0,1-9.143,0ZM5.714,4.5V5.624a2.286,2.286,0,0,0,4.572,0V4.5a2.286,2.286,0,0,0-4.572,0Z" transform="translate(0 0)"/></g><path class="d" d="M-17305.865-6214.33l3.42,2.764,7.178-7.568" transform="translate(17607.807 6490.915)"/></g></svg>