<svg xmlns="http://www.w3.org/2000/svg" xmlns:xlink="http://www.w3.org/1999/xlink" width="19" height="19" viewBox="0 0 19 19"><defs><style>.a{fill:none;}.b{clip-path:url(#a);}.c{fill:#1d4980;fill-rule:evenodd;}</style><clipPath id="a"><rect class="a" width="19" height="19"/></clipPath></defs><g class="b"><rect class="a" width="19" height="19"/><path class="c" d="M2.375,5.938V16.625h14.25V5.938ZM15.438,2.375h2.375A1.122,1.122,0,0,1,19,3.563v14.25A1.122,1.122,0,0,1,17.813,19H1.188A1.122,1.122,0,0,1,0,17.813V3.563A1.122,1.122,0,0,1,1.188,2.375H3.563V1.188A1.122,1.122,0,0,1,4.75,0,1.122,1.122,0,0,1,5.938,1.188V2.375h7.125V1.188a1.188,1.188,0,0,1,2.375,0ZM14.25,14.25H11.875V11.875H14.25Zm-3.562,0H8.313V11.875h2.375Zm3.563-3.562H11.875V8.313H14.25Zm-3.562,0H8.313V8.313h2.375ZM7.125,14.25H4.75V11.875H7.125Z"/></g></svg>