<svg xmlns="http://www.w3.org/2000/svg" width="20" height="20" viewBox="0 0 20 20"><defs><style>.a{fill:#1d4980;}</style></defs><path class="a" d="M0,11.25A8.7,8.7,0,0,1,8.75,2.5,8.555,8.555,0,0,1,14,4.25l1.124-1.127-1-1a1.207,1.207,0,0,1,0-1.749,1.21,1.21,0,0,1,1.751,0l3.75,3.751a1.209,1.209,0,0,1,0,1.749,1.211,1.211,0,0,1-1.752,0l-1-1L15.751,6A8.564,8.564,0,0,1,17.5,11.25,8.7,8.7,0,0,1,8.75,20,8.7,8.7,0,0,1,0,11.25Zm2.5,0A6.191,6.191,0,0,0,8.75,17.5,6.191,6.191,0,0,0,15,11.25,6.189,6.189,0,0,0,8.75,5,6.189,6.189,0,0,0,2.5,11.25Zm5,1.249v-5H10V10h2.5v2.5Z" transform="translate(0 0)"/></svg>