<svg xmlns="http://www.w3.org/2000/svg" xmlns:xlink="http://www.w3.org/1999/xlink" width="19" height="19" viewBox="0 0 19 19"><defs><style>.a{fill:none;}.b{clip-path:url(#a);}.c{fill:#1d4980;}</style><clipPath id="a"><rect class="a" width="19" height="19"/></clipPath></defs><g class="b"><path class="c" d="M11.875,15.438H5.938l2.171-2.376h7.329a1.187,1.187,0,0,0,1.187-1.187V4.751h1.187A1.187,1.187,0,0,1,19,5.938V14.25a1.188,1.188,0,0,1-1.187,1.188H15.438V19ZM3.562,10.687H1.187A1.188,1.188,0,0,1,0,9.5V1.187A1.188,1.188,0,0,1,1.187,0H13.062a1.188,1.188,0,0,1,1.187,1.187V9.5a1.187,1.187,0,0,1-1.187,1.187H7.125L3.562,14.25Z" transform="translate(0 0)"/></g></svg>