<svg xmlns="http://www.w3.org/2000/svg" xmlns:xlink="http://www.w3.org/1999/xlink" width="20" height="21" viewBox="0 0 20 21"><defs><style>.a{fill:none;}.b{clip-path:url(#a);}.c{fill:#1d4980;}.d{fill:#bcbccb;}.e{fill:#fff;font-size:11px;font-family:HelveticaNeueLTArabic-Bold, Helvetica Neue LT Arabic;font-weight:700;}</style><clipPath id="a"><rect class="a" width="20" height="20"/></clipPath></defs><g transform="translate(-290 -346)"><g transform="translate(-28 -32)"><g class="b" transform="translate(318 379)"><path class="c" d="M9.883,0a9.883,9.883,0,1,0,9.883,9.883A9.912,9.912,0,0,0,9.883,0Zm4.324,12.477-1.729,1.729L9.883,11.612,7.289,14.207,5.559,12.477,8.153,9.883,5.559,7.289,7.289,5.559,9.883,8.153l2.594-2.594,1.729,1.729L11.612,9.883Z"/></g><ellipse class="c" cx="6" cy="6.5" rx="6" ry="6.5" transform="translate(322 383)"/></g><g transform="translate(293 350)"><rect class="d" width="17.995" height="2.159" rx="1" transform="translate(1.527) rotate(45)"/><rect class="d" width="17.995" height="2.159" rx="1" transform="translate(14.252 1.527) rotate(135)"/></g><text class="e" transform="translate(297 361)"><tspan x="0" y="0">$</tspan></text></g></svg>