<svg xmlns="http://www.w3.org/2000/svg" width="23.125" height="25.698" viewBox="0 0 23.125 25.698"><defs><style>.a{fill:#1d4980;}</style></defs><g transform="translate(0 0)"><path class="a" d="M43.966,12.621h1.793a.736.736,0,0,0,.735-.735V10.093a.736.736,0,0,0-.735-.735H43.966a.736.736,0,0,0-.735.735v1.793A.736.736,0,0,0,43.966,12.621Zm.018-2.51h1.757v1.757H43.984Zm-.018,7.278h1.793a.736.736,0,0,0,.735-.735V14.861a.736.736,0,0,0-.735-.735H43.966a.736.736,0,0,0-.735.735v1.793A.736.736,0,0,0,43.966,17.389Zm.018-2.51h1.757v1.757H43.984Zm-5.133-2.259h1.793a.736.736,0,0,0,.735-.735V10.093a.736.736,0,0,0-.735-.735H38.851a.736.736,0,0,0-.735.735v1.793A.736.736,0,0,0,38.851,12.621Zm.018-2.51h1.757v1.757H38.869Zm-8.456,8.56H28.62a.736.736,0,0,0-.735.735V21.2a.736.736,0,0,0,.735.735h1.793a.736.736,0,0,0,.735-.735V19.406A.736.736,0,0,0,30.413,18.671Zm-.018,2.51H28.638V19.424H30.4Zm.018-11.822H28.62a.736.736,0,0,0-.735.735v1.793a.736.736,0,0,0,.735.735h1.793a.736.736,0,0,0,.735-.735V10.093A.736.736,0,0,0,30.413,9.358Zm-.018,2.51H28.638V10.111H30.4Zm8.456,5.409h1.793a.736.736,0,0,0,.735-.735V14.75a.736.736,0,0,0-.735-.735H38.851a.736.736,0,0,0-.735.735v1.793A.736.736,0,0,0,38.851,17.277Zm.018-2.51h1.757v1.757H38.869Zm8-13.047H45.258V1.145A1.146,1.146,0,0,0,44.114,0h-.173A1.146,1.146,0,0,0,42.8,1.145V1.72H31.583V1.145A1.146,1.146,0,0,0,30.439,0h-.173a1.146,1.146,0,0,0-1.145,1.145V1.72H27.512A1.887,1.887,0,0,0,25.627,3.6V23.816A1.884,1.884,0,0,0,27.509,25.7H46.87a1.884,1.884,0,0,0,1.882-1.882V3.6A1.887,1.887,0,0,0,46.868,1.72Zm-3.319-.576a.392.392,0,0,1,.392-.392h.173a.392.392,0,0,1,.392.392V1.72h-.957Zm-13.675,0a.392.392,0,0,1,.392-.392h.173a.392.392,0,0,1,.392.392V1.72h-.957V1.145ZM48,23.816a1.131,1.131,0,0,1-1.129,1.129H27.509a1.131,1.131,0,0,1-1.129-1.129v0a1.875,1.875,0,0,0,1.132.379H42.774a1.872,1.872,0,0,0,1.333-.552L48,19.747Zm-4.277-.856a1.61,1.61,0,0,0,.046-.38V20.067a.86.86,0,0,1,.859-.859H47.14a1.61,1.61,0,0,0,.38-.046ZM48,7.1H31.96a.376.376,0,0,0,0,.753H48V17.6a.86.86,0,0,1-.859.859H44.628a1.614,1.614,0,0,0-1.612,1.612V22.58a.86.86,0,0,1-.859.859H27.512a1.133,1.133,0,0,1-1.132-1.132V7.853h4.074a.376.376,0,0,0,0-.753H26.38V3.6a1.133,1.133,0,0,1,1.132-1.132h1.609V3.58a1.146,1.146,0,0,0,1.145,1.145.376.376,0,1,0,0-.753.392.392,0,0,1-.392-.392V2.473H42.8V3.58a1.146,1.146,0,0,0,1.145,1.145.376.376,0,0,0,0-.753.392.392,0,0,1-.392-.392V2.473h3.319A1.133,1.133,0,0,1,48,3.6ZM30.413,14.015H28.621a.736.736,0,0,0-.735.735v1.793a.736.736,0,0,0,.735.735h1.793a.736.736,0,0,0,.735-.735V14.75a.736.736,0,0,0-.735-.735Zm-.018,2.51H28.638V14.768H30.4Zm3.341-3.9h1.793a.736.736,0,0,0,.735-.735V10.093a.736.736,0,0,0-.735-.735H33.736a.736.736,0,0,0-.735.735v1.793A.736.736,0,0,0,33.736,12.621Zm.018-2.51H35.51v1.757H33.754Zm5.115,11.069a.376.376,0,0,0-.752.018.736.736,0,0,0,.735.735h1.793a.736.736,0,0,0,.735-.735V19.406a.736.736,0,0,0-.735-.735H38.851a.736.736,0,0,0-.735.735v.517a.376.376,0,0,0,.753,0v-.5h1.757v1.757Zm-5.133-3.9h1.793a.736.736,0,0,0,.735-.735V14.75a.736.736,0,0,0-.735-.735H33.736A.736.736,0,0,0,33,14.75v1.793A.736.736,0,0,0,33.736,17.277Zm.018-2.51H35.51v1.757H33.754Zm-.018,7.166h1.793a.736.736,0,0,0,.735-.735V19.406a.736.736,0,0,0-.735-.735H33.736a.736.736,0,0,0-.735.735V21.2A.736.736,0,0,0,33.736,21.934Zm.018-2.51H35.51v1.757H33.754Z" transform="translate(-25.627 0)"/></g></svg>