<svg xmlns="http://www.w3.org/2000/svg" width="25.702" height="25.7" viewBox="0 0 25.702 25.7"><defs><style>.a{fill:#1d4980;}</style></defs><g transform="translate(0 0)"><g transform="translate(0 0)"><path class="a" d="M26.028,20.845l-5.2-3.469a1.518,1.518,0,0,0-2.033.33l-1.515,1.948a.648.648,0,0,1-.83.175l-.288-.159a17.42,17.42,0,0,1-4.54-3.566,17.491,17.491,0,0,1-3.566-4.54l-.158-.288a.648.648,0,0,1,.171-.833l1.947-1.515a1.519,1.519,0,0,0,.331-2.033l-3.469-5.2a1.51,1.51,0,0,0-2.036-.458L2.663,2.541a3.069,3.069,0,0,0-1.4,1.816c-.783,2.854-.194,7.78,7.062,15.037,5.772,5.772,10.069,7.324,13.023,7.324a7.588,7.588,0,0,0,2.013-.263,3.066,3.066,0,0,0,1.816-1.4l1.308-2.174A1.511,1.511,0,0,0,26.028,20.845Zm-.28,1.6-1.305,2.175a2.214,2.214,0,0,1-1.306,1.013c-2.635.723-7.238.124-14.2-6.842S1.366,7.219,2.09,4.583A2.217,2.217,0,0,1,3.1,3.275L5.279,1.97a.655.655,0,0,1,.884.2L8.047,5,9.629,7.371a.659.659,0,0,1-.143.882L7.538,9.768a1.5,1.5,0,0,0-.4,1.924l.155.281a18.17,18.17,0,0,0,3.712,4.737,18.188,18.188,0,0,0,4.737,3.712l.281.155a1.5,1.5,0,0,0,1.924-.4l1.515-1.947a.66.66,0,0,1,.882-.143l5.2,3.469A.655.655,0,0,1,25.748,22.442Z" transform="translate(-1 -1.018)"/><path class="a" d="M283.056,70.181a7.289,7.289,0,0,1,7.281,7.281.428.428,0,1,0,.857,0,8.147,8.147,0,0,0-8.138-8.138.428.428,0,0,0,0,.857Z" transform="translate(-268.493 -65.896)"/><path class="a" d="M283.056,121.381a4.717,4.717,0,0,1,4.711,4.711.428.428,0,0,0,.857,0,5.574,5.574,0,0,0-5.568-5.568.428.428,0,1,0,0,.857Z" transform="translate(-268.493 -114.526)"/><path class="a" d="M283.056,172.581a2.144,2.144,0,0,1,2.142,2.142.428.428,0,1,0,.857,0,3,3,0,0,0-3-3,.428.428,0,1,0,0,.857Z" transform="translate(-268.493 -163.156)"/></g></g></svg>