<svg xmlns="http://www.w3.org/2000/svg" width="24.112" height="24.112" viewBox="0 0 24.112 24.112"><defs><style>.a{fill:#1d4980;}</style></defs><g transform="translate(0 0)"><path class="a" d="M19.96,8.491a5.634,5.634,0,1,0-9.714,0H0V24.112H24.112V8.491Zm2.74,7.1H19.572V9.9H22.7ZM9.08,12.043H5.953V9.9H9.08ZM9.4,13.456l1.95,3.052v2.61h-5.4V13.456ZM5.953,20.53h5.4V22.7h-5.4Zm6.81,0h5.4V22.7h-5.4Zm5.4-1.413h-5.4v-2.11h5.4ZM12.443,15.6l-1.95-3.052V9.9h.915L15.1,13.6l3.057-3.055V15.6ZM15.1,1.413a4.219,4.219,0,0,1,2.983,7.2L15.1,11.6,12.118,8.616a4.219,4.219,0,0,1,2.986-7.2ZM4.54,9.9v2.139H1.413V9.9ZM1.413,13.456H4.54V22.7H1.413ZM19.572,22.7V17.008H22.7V22.7Z" transform="translate(0 0)"/><path class="a" d="M263.872,65.578a2.808,2.808,0,1,0-2.808-2.808A2.812,2.812,0,0,0,263.872,65.578Zm0-4.2a1.4,1.4,0,1,1-1.4,1.4A1.4,1.4,0,0,1,263.872,61.374Z" transform="translate(-248.769 -57.137)"/></g></svg>