<svg xmlns="http://www.w3.org/2000/svg" width="26.774" height="28" viewBox="0 0 26.774 28"><defs><style>.a{fill:#1d4980;}</style></defs><g transform="translate(-15.349 -16)"><path class="a" d="M38.047,44H19.425a4.08,4.08,0,0,1-4.076-4.076V20.078A4.08,4.08,0,0,1,19.425,16H38.047a4.081,4.081,0,0,1,4.076,4.076V39.922A4.081,4.081,0,0,1,38.047,44ZM19.425,17.5a2.578,2.578,0,0,0-2.576,2.576V39.922A2.578,2.578,0,0,0,19.425,42.5H38.047a2.579,2.579,0,0,0,2.576-2.576V20.078A2.579,2.579,0,0,0,38.047,17.5Z"/><path class="a" d="M26.876,35.932a.751.751,0,0,1-.7-.481l-2.609-6.785-1,1.958a.75.75,0,0,1-.668.409H19.385a.75.75,0,0,1,0-1.5h2.057L23,26.485a.717.717,0,0,1,.707-.408.75.75,0,0,1,.661.48l2.483,6.458,2.985-8.448a.8.8,0,0,1,.715-.5.75.75,0,0,1,.7.514l2.1,6.344.819-1.092a.753.753,0,0,1,.6-.3h3.313a.75.75,0,0,1,0,1.5H35.149L33.7,32.972a.75.75,0,0,1-1.312-.214l-1.867-5.626-2.933,8.3a.749.749,0,0,1-.7.5Z"/></g></svg>