<svg xmlns="http://www.w3.org/2000/svg" width="4.798" height="22.182" viewBox="0 0 4.798 22.182"><defs><style>.a{fill:#1d4980;}</style></defs><g transform="translate(-12.796 5.388)"><path class="a" d="M42.4,9.017h.8v1.6H44v-2a.4.4,0,0,0-.4-.4h-.478L44.4,6.173l1.277,2.044H45.2a.4.4,0,0,0-.4.4v2h.8v-1.6h.8a.4.4,0,0,0,.339-.612l-2-3.2a.415.415,0,0,0-.678,0l-2,3.2a.4.4,0,0,0,.339.612Z" transform="translate(-29.205 -10.42)"/><path class="a" d="M49,21h.8v.8H49Z" transform="translate(-33.406 -13.003)"/><path class="a" d="M49,41h.8v.8H49Z" transform="translate(-33.406 -25.007)"/></g></svg>