<svg xmlns="http://www.w3.org/2000/svg" width="17.593" height="24.79" viewBox="0 0 17.593 24.79"><defs><style>.a{fill:#1d4980;}</style></defs><g transform="translate(0 0)"><path class="a" d="M17.6,16.594a1.2,1.2,0,0,0,1.2-1.2v-6a2,2,0,0,0-2-2h-.616a2.389,2.389,0,0,0,.476-.8h.54a1.2,1.2,0,0,0,.4-2.325V3a2,2,0,0,0-2-2H13.2a2,2,0,0,0-2,2V4.272A1.2,1.2,0,0,0,11.6,6.6h.54a2.4,2.4,0,0,0,.476.8H12a2,2,0,0,0-2,2v6a1.2,1.2,0,0,0,1.2,1.2h.4v6.871a1.2,1.2,0,0,0-.8,1.126v.8a.4.4,0,0,0,.4.4h6.4a.4.4,0,0,0,.4-.4v-.8a1.2,1.2,0,0,0-.8-1.126V16.594Zm0-.8h-.4v-.8H18v.4A.4.4,0,0,1,17.6,15.794ZM15.2,8.2a.8.8,0,1,1-1.6,0Zm2-2.4h-.4V5h.4a.4.4,0,1,1,0,.8ZM12,3a1.2,1.2,0,0,1,1.2-1.2h2.4A1.2,1.2,0,0,1,16.8,3V4.13A1.2,1.2,0,0,1,16,3a.4.4,0,0,0-.8,0c0,.556-1.21,1.2-2,1.2H12Zm-.4,2.8a.4.4,0,0,1,0-.8H12v.8Zm1.2,0V5h.4a3.74,3.74,0,0,0,2.3-.949A2.016,2.016,0,0,0,16,4.6V5.8a1.6,1.6,0,1,1-3.2,0ZM12,8.2h.8a1.6,1.6,0,1,0,3.2,0h.8A1.2,1.2,0,0,1,18,9.4v4.8h-.8V9.8h-.8v4.4h-4V9.8h-.8v4.4h-.8V9.4A1.2,1.2,0,0,1,12,8.2Zm-.8,7.6a.4.4,0,0,1-.4-.4v-.4h.8v.8Zm2.8,9.2H11.6v-.4a.4.4,0,0,1,.4-.4h2Zm0-8.4v6.8H12.4v-8.4h4v8.4H14.8v-6.8Zm3.2,8.4H14.8v-.8h2a.4.4,0,0,1,.4.4Z" transform="translate(-10 -1)"/><path class="a" d="M32,1.8h.8V24.99H32v.8h4v-.8H33.6v-.8h1.6v-.8H33.6v-.8h1.6v-.8H33.6v-.8h1.6v-.8H33.6v-.8h1.6v-.8H33.6v-.8h1.6v-.8H33.6v-.8h1.6v-.8H33.6v-.8h1.6v-.8H33.6V13h1.6v-.8H33.6v-.8h1.6v-.8H33.6V9.8h1.6V9H33.6V8.2h1.6V7.4H33.6V6.6h1.6V5.8H33.6V5h1.6V4.2H33.6V3.4h1.6V2.6H33.6V1.8H36V1H32Z" transform="translate(-23.203 -1)"/><path class="a" d="M42.4,9.017h.8v1.6H44v-2a.4.4,0,0,0-.4-.4h-.478L44.4,6.173l1.277,2.044H45.2a.4.4,0,0,0-.4.4v2h.8v-1.6h.8a.4.4,0,0,0,.339-.612l-2-3.2a.415.415,0,0,0-.678,0l-2,3.2a.4.4,0,0,0,.339.612Z" transform="translate(-29.205 -3.42)"/><path class="a" d="M45,21h.8v.8H45Z" transform="translate(-31.005 -13.003)"/><path class="a" d="M45,25h.8v.8H45Z" transform="translate(-31.005 -15.404)"/><path class="a" d="M45,29h.8v.8H45Z" transform="translate(-31.005 -17.805)"/><path class="a" d="M49,21h.8v.8H49Z" transform="translate(-33.406 -13.003)"/><path class="a" d="M49,25h.8v.8H49Z" transform="translate(-33.406 -15.404)"/><path class="a" d="M49,29h.8v.8H49Z" transform="translate(-33.406 -17.805)"/><path class="a" d="M46.4,46.6h-.8V45h-.8v2a.4.4,0,0,0,.4.4h.478L44.4,49.443,43.121,47.4H43.6A.4.4,0,0,0,44,47V45h-.8v1.6h-.8a.4.4,0,0,0-.339.612l2,3.2a.4.4,0,0,0,.678,0l2-3.2A.4.4,0,0,0,46.4,46.6Z" transform="translate(-29.205 -27.407)"/><path class="a" d="M49,41h.8v.8H49Z" transform="translate(-33.406 -25.007)"/><path class="a" d="M49,37h.8v.8H49Z" transform="translate(-33.406 -22.606)"/><path class="a" d="M49,33h.8v.8H49Z" transform="translate(-33.406 -20.205)"/><path class="a" d="M45,41h.8v.8H45Z" transform="translate(-31.005 -25.007)"/><path class="a" d="M45,37h.8v.8H45Z" transform="translate(-31.005 -22.606)"/><path class="a" d="M45,33h.8v.8H45Z" transform="translate(-31.005 -20.205)"/></g></svg>