<svg xmlns="http://www.w3.org/2000/svg" width="21.435" height="28.484" viewBox="0 0 21.435 28.484"><defs><style>.a{fill:#1d4980;}</style></defs><g transform="translate(-11.375 -5.25)"><path class="a" d="M32.378,33.734H11.807a.432.432,0,0,1-.432-.432V5.682a.432.432,0,0,1,.432-.432H27.232a.434.434,0,0,1,.3.126l5.146,5.147a.43.43,0,0,1,.127.3V33.3A.432.432,0,0,1,32.378,33.734Zm-20.14-.863H31.946V11L27.055,6.113H12.238Z" transform="translate(0 0)"/><path class="a" d="M43.76,11.259H38.614a.432.432,0,0,1-.432-.432V5.681a.432.432,0,0,1,.737-.306l5.146,5.147a.432.432,0,0,1-.3.737ZM39.045,10.4h3.673L39.045,6.723Z" transform="translate(-11.382)"/><path class="a" d="M27.76,39.635A3.593,3.593,0,0,1,26,39.174a3.633,3.633,0,0,1-1.768.46c-2.225,0-3.664-4.881-3.664-6.571A3.668,3.668,0,0,1,24.228,29.4a3.63,3.63,0,0,1,1.766.46,3.591,3.591,0,0,1,1.764-.46,3.668,3.668,0,0,1,3.664,3.664C31.424,34.751,29.984,39.635,27.76,39.635ZM26,38.238a.43.43,0,0,1,.239.072,2.736,2.736,0,0,0,1.523.46c1.365,0,2.8-3.961,2.8-5.708a2.8,2.8,0,0,0-2.8-2.8,2.74,2.74,0,0,0-1.523.46.431.431,0,0,1-.476,0,2.793,2.793,0,0,0-4.334,2.337c0,1.747,1.435,5.708,2.8,5.708a2.784,2.784,0,0,0,1.532-.46A.433.433,0,0,1,26,38.238Z" transform="translate(-3.901 -10.254)"/><path class="a" d="M29.688,29.372a.432.432,0,0,1-.432-.431,3.05,3.05,0,0,1,2-2.877.432.432,0,0,1,.279.817,2.191,2.191,0,0,0-1.413,2.058.431.431,0,0,1-.43.432Z" transform="translate(-7.592 -8.829)"/><path class="a" d="M19.851,10.987H16.363a.432.432,0,0,1,0-.863h3.488a.432.432,0,0,1,0,.863Z" transform="translate(-1.934 -2.07)"/><path class="a" d="M21.074,15.056H16.363a.432.432,0,0,1,0-.863h4.711a.432.432,0,1,1,0,.863Z" transform="translate(-1.934 -3.797)"/></g></svg>