<svg xmlns="http://www.w3.org/2000/svg" width="32.474" height="28.851" viewBox="0 0 32.474 28.851"><defs><style>.a{fill:#1d4980;}</style></defs><g transform="translate(-5.25 -8.011)"><path class="a" d="M29.671,36.861a8.008,8.008,0,0,1-3.326-.725,13.841,13.841,0,0,1-1.921-1.05C13.979,39,8.353,32.479,7.257,31.024a1.712,1.712,0,0,1-1.318-.309,2.062,2.062,0,0,1-.689-1.536A41.739,41.739,0,0,1,8.164,15.74a12,12,0,0,1,8.285-7.593c.141-.035.276-.066.4-.092a2.994,2.994,0,0,1,2.331.568,6.556,6.556,0,0,1,2.366,3.266c.2,1.164-3.107,3.837-3.484,4.138-.713.578-1.626-.11-2.139-.611a2.521,2.521,0,0,1-.87.459,21.3,21.3,0,0,1,.285,7.443,5.914,5.914,0,0,1,7.694.623A9.061,9.061,0,0,1,28.1,20.889a7.831,7.831,0,0,1,6.6,1.584,8.081,8.081,0,0,1-5.024,14.388ZM24.492,34.04a.493.493,0,0,1,.3.1,11.585,11.585,0,0,0,1.965,1.1,7.087,7.087,0,0,0,7.326-12,6.853,6.853,0,0,0-5.772-1.388,8.19,8.19,0,0,0-4.84,3.122.49.49,0,0,1-.365.191.484.484,0,0,1-.382-.153c-1.556-1.64-4.165-3.017-7.762-.228a.492.492,0,0,1-.783-.489,20.112,20.112,0,0,0-.193-8.719.492.492,0,0,1,.11-.439.5.5,0,0,1,.423-.163,1.467,1.467,0,0,0,1.074-.581.472.472,0,0,1,.373-.161.5.5,0,0,1,.368.176c.418.5.97.889,1.13.853,1.176-.941,3.051-2.76,3.12-3.246a5.824,5.824,0,0,0-1.953-2.577,2.051,2.051,0,0,0-1.579-.414q-.171.035-.357.081a11.02,11.02,0,0,0-7.6,6.975A40.871,40.871,0,0,0,6.234,29.184a1.09,1.09,0,0,0,.312.757.939.939,0,0,0,.807.066.5.5,0,0,1,.535.212c.214.335,5.379,8.144,16.426,3.859a.49.49,0,0,1,.177-.036Z"/><path class="a" d="M18.551,33.63a.492.492,0,0,1-.319-.867c.18-.153.368-.307.542-.434a.492.492,0,0,1,.579.8c-.155.113-.322.251-.483.388a.49.49,0,0,1-.319.117Z" transform="translate(-4.407 -8.334)"/><path class="a" d="M33.58,35.586a.491.491,0,0,1-.44-.272,8.6,8.6,0,0,0-1.332-1.828.492.492,0,1,1,.712-.679,9.4,9.4,0,0,1,1.5,2.067.493.493,0,0,1-.439.712Z" transform="translate(-9.087 -8.475)"/></g></svg>