<svg xmlns="http://www.w3.org/2000/svg" width="28.148" height="27.283" viewBox="0 0 28.148 27.283"><defs><style>.a{fill:#1d4980;}</style></defs><g transform="translate(-5.249 -6.013)"><path class="a" d="M25.98,33.3a2.208,2.208,0,0,1-1.5-.6L5.96,15.421a2.2,2.2,0,0,1-.7-1.442A1.926,1.926,0,0,1,5.763,12.5l5.483-5.877a1.851,1.851,0,0,1,1.441-.609,2.2,2.2,0,0,1,1.488.6L32.691,23.889a2.076,2.076,0,0,1,.2,2.923l-5.483,5.877a1.934,1.934,0,0,1-1.426.607ZM12.671,6.866a1.081,1.081,0,0,0-.8.338L6.386,13.08a1.081,1.081,0,0,0-.28.834,1.353,1.353,0,0,0,.436.883L25.059,32.071a1.223,1.223,0,0,0,1.723.035l5.482-5.877a1.223,1.223,0,0,0-.155-1.716L13.592,7.24a1.35,1.35,0,0,0-.91-.374Z" transform="translate(0 0)"/><path class="a" d="M26.6,31.365a.428.428,0,0,1-.291-.114l-6.193-5.778a.428.428,0,0,1-.021-.6L24.446,20.2a.431.431,0,0,1,.3-.135.462.462,0,0,1,.305.114l6.193,5.777a.428.428,0,0,1,.021.6L26.91,31.229a.431.431,0,0,1-.3.135Zm-5.59-6.225,5.57,5.2,3.771-4.044-5.57-5.2Z" transform="translate(-6.352 -6.062)"/><path class="a" d="M12.277,19.572a.528.528,0,0,1-.165-.028.469.469,0,0,1-.136-.1.366.366,0,0,1-.091-.137.406.406,0,0,1-.034-.165.386.386,0,0,1,.034-.159.412.412,0,0,1,.091-.142.428.428,0,0,1,.466-.09.44.44,0,0,1,.136.09.341.341,0,0,1,.091.142.386.386,0,0,1,.034.159.428.428,0,0,1-.125.3.469.469,0,0,1-.136.1.528.528,0,0,1-.165.028Z" transform="translate(-2.847 -5.481)"/><path class="a" d="M15.125,16.526a.44.44,0,0,1-.307-.125.448.448,0,0,1-.091-.137A.531.531,0,0,1,14.7,16.1a.458.458,0,0,1,.119-.3.447.447,0,0,1,.609,0,.437.437,0,0,1,.125.3A.427.427,0,0,1,15.125,16.526Z" transform="translate(-4.075 -4.168)"/><path class="a" d="M17.965,13.476a.4.4,0,0,1-.3-.126.432.432,0,0,1-.091-.136.412.412,0,0,1-.034-.165.434.434,0,0,1,.125-.3.439.439,0,0,1,.6,0,.434.434,0,0,1,.125.3.534.534,0,0,1-.028.165.5.5,0,0,1-.233.233.4.4,0,0,1-.165.029Z" transform="translate(-5.3 -2.853)"/><path class="a" d="M15.315,21.163a.512.512,0,0,1-.165-.028.455.455,0,0,1-.136-.1.45.45,0,0,1-.091-.137.406.406,0,0,1-.034-.165.436.436,0,0,1,.125-.3.555.555,0,0,1,.136-.091.438.438,0,0,1,.33,0,.555.555,0,0,1,.136.091.436.436,0,0,1,.125.3.406.406,0,0,1-.034.165.366.366,0,0,1-.091.137.455.455,0,0,1-.136.1A.512.512,0,0,1,15.315,21.163Z" transform="translate(-4.157 -6.167)"/><path class="a" d="M17.544,18.782a.407.407,0,0,1-.165-.034.36.36,0,0,1-.136-.091.382.382,0,0,1-.1-.137.4.4,0,0,1-.028-.165.406.406,0,0,1,.028-.165.459.459,0,0,1,.1-.136.419.419,0,0,1,.461-.09.379.379,0,0,1,.142.09.441.441,0,0,1,.091.136.41.41,0,0,1,.034.165.4.4,0,0,1-.034.165.45.45,0,0,1-.091.137.431.431,0,0,1-.142.091.381.381,0,0,1-.159.034Z" transform="translate(-5.119 -5.14)"/><path class="a" d="M19.765,16.4a.4.4,0,0,1-.165-.028.377.377,0,0,1-.136-.1.354.354,0,0,1-.091-.136.4.4,0,0,1-.034-.16.44.44,0,0,1,.125-.307.452.452,0,0,1,.466-.091.441.441,0,0,1,.136.091.481.481,0,0,1,.091.142.41.41,0,0,1,.034.165.384.384,0,0,1-.034.16.354.354,0,0,1-.091.136.4.4,0,0,1-.3.126Z" transform="translate(-6.076 -4.112)"/><path class="a" d="M17.115,24.091a.424.424,0,0,1-.3-.126.466.466,0,0,1-.125-.3.406.406,0,0,1,.034-.165.435.435,0,0,1,.091-.136.44.44,0,0,1,.466-.1.449.449,0,0,1,.136.1.356.356,0,0,1,.091.136.406.406,0,0,1,.034.165.466.466,0,0,1-.125.3A.424.424,0,0,1,17.115,24.091Z" transform="translate(-4.933 -7.428)"/><path class="a" d="M19.964,21.041a.407.407,0,0,1-.165-.034.536.536,0,0,1-.142-.092.431.431,0,0,1-.119-.3.407.407,0,0,1,.028-.165.432.432,0,0,1,.091-.136.441.441,0,0,1,.466-.1.485.485,0,0,1,.142.1.432.432,0,0,1,.091.136.412.412,0,0,1,.034.165A.427.427,0,0,1,19.964,21.041Z" transform="translate(-6.162 -6.113)"/><path class="a" d="M22.8,17.991a.407.407,0,0,1-.165-.034.441.441,0,0,1-.136-.091.427.427,0,0,1,0-.6.469.469,0,0,1,.136-.1.442.442,0,0,1,.466.1.426.426,0,0,1-.136.694A.407.407,0,0,1,22.8,17.991Z" transform="translate(-7.387 -4.798)"/><path class="a" d="M36.545,42.215a.478.478,0,0,1-.159-.028.4.4,0,0,1-.142-.1.421.421,0,0,1-.125-.3.406.406,0,0,1,.034-.165.378.378,0,0,1,.091-.136.44.44,0,0,1,.466-.1.5.5,0,0,1,.233.233.526.526,0,0,1,.028.165.421.421,0,0,1-.125.3.375.375,0,0,1-.136.1.512.512,0,0,1-.165.028Z" transform="translate(-13.313 -15.247)"/><path class="a" d="M39.395,39.17a.408.408,0,0,1-.3-.13A.366.366,0,0,1,39,38.9a.38.38,0,0,1-.034-.159A.405.405,0,0,1,39,38.58a.351.351,0,0,1,.091-.136.437.437,0,0,1,.466-.1.449.449,0,0,1,.136.1.428.428,0,0,1,.091.136.405.405,0,0,1,.034.164.38.38,0,0,1-.034.159.45.45,0,0,1-.091.137.408.408,0,0,1-.3.13Z" transform="translate(-14.542 -13.932)"/><path class="a" d="M42.234,36.111a.493.493,0,0,1-.159-.028.4.4,0,0,1-.142-.1.429.429,0,0,1,.142-.694.406.406,0,0,1,.461.1.415.415,0,0,1,.125.3.394.394,0,0,1-.125.3.375.375,0,0,1-.136.1A.528.528,0,0,1,42.234,36.111Z" transform="translate(-15.767 -12.613)"/><path class="a" d="M39.585,43.811a.447.447,0,0,1-.3-.125.467.467,0,0,1-.091-.142.386.386,0,0,1-.034-.159.4.4,0,0,1,.034-.165.45.45,0,0,1,.091-.137.42.42,0,0,1,.142-.1.431.431,0,0,1,.461.1.427.427,0,0,1,.125.3.4.4,0,0,1-.125.3A.426.426,0,0,1,39.585,43.811Z" transform="translate(-14.624 -15.933)"/><path class="a" d="M41.815,41.425a.408.408,0,0,1-.165-.034.418.418,0,0,1-.227-.227A.406.406,0,0,1,41.388,41a.379.379,0,0,1,.034-.159.333.333,0,0,1,.091-.142.447.447,0,0,1,.466-.091.432.432,0,0,1,.136.091.4.4,0,0,1,.091.142.379.379,0,0,1,.034.159.406.406,0,0,1-.034.165.428.428,0,0,1-.091.136.354.354,0,0,1-.136.091.408.408,0,0,1-.165.034Z" transform="translate(-15.586 -14.906)"/><path class="a" d="M44.035,39.041a.436.436,0,0,1-.3-.125.425.425,0,0,1-.125-.3.412.412,0,0,1,.034-.165.432.432,0,0,1,.091-.136.441.441,0,0,1,.466-.1.459.459,0,0,1,.136.1.449.449,0,0,1,.1.136.534.534,0,0,1,.028.165.4.4,0,0,1-.125.3A.426.426,0,0,1,44.035,39.041Z" transform="translate(-16.543 -13.876)"/><path class="a" d="M41.385,46.732a.382.382,0,0,1-.159-.035.406.406,0,0,1-.142-.09.448.448,0,0,1-.091-.136.416.416,0,0,1,0-.33A.45.45,0,0,1,41.083,46a.478.478,0,0,1,.142-.091.4.4,0,0,1,.324,0,.452.452,0,0,1,.136.091.469.469,0,0,1,.1.137.526.526,0,0,1,.028.165.4.4,0,0,1-.125.3.44.44,0,0,1-.136.09.408.408,0,0,1-.165.035Z" transform="translate(-15.4 -17.193)"/><path class="a" d="M44.235,43.686a.408.408,0,0,1-.165-.035.354.354,0,0,1-.136-.091.425.425,0,0,1-.125-.3.406.406,0,0,1,.034-.165.366.366,0,0,1,.091-.137.44.44,0,0,1,.6,0,.45.45,0,0,1,.091.137.421.421,0,0,1-.091.466.354.354,0,0,1-.136.091A.408.408,0,0,1,44.235,43.686Z" transform="translate(-16.63 -15.882)"/><path class="a" d="M47.077,40.632a.382.382,0,0,1-.159-.035.373.373,0,0,1-.142-.091.428.428,0,0,1-.091-.136.414.414,0,0,1,0-.329.424.424,0,0,1,.557-.227.376.376,0,0,1,.136.091.445.445,0,0,1,.1.136.419.419,0,0,1,.028.165.4.4,0,0,1-.028.164.445.445,0,0,1-.1.136.424.424,0,0,1-.3.126Z" transform="translate(-17.855 -14.563)"/></g></svg>