<svg xmlns="http://www.w3.org/2000/svg" width="15.653" height="14.756" viewBox="0 0 15.653 14.756"><defs><style>.a{fill:#1d4980;}</style></defs><path class="a" d="M30.938,44.156a5.18,5.18,0,0,1-2.543-.664,5.237,5.237,0,0,1-2.549.664c-3.207,0-5.282-7.038-5.282-9.473A5.289,5.289,0,0,1,25.846,29.4a5.234,5.234,0,0,1,2.546.664,5.176,5.176,0,0,1,2.543-.664,5.289,5.289,0,0,1,5.283,5.282C36.221,37.115,34.145,44.156,30.938,44.156ZM28.4,42.142a.62.62,0,0,1,.345.1,3.944,3.944,0,0,0,2.2.664c1.969,0,4.038-5.71,4.038-8.229a4.043,4.043,0,0,0-4.038-4.036,3.949,3.949,0,0,0-2.2.664.621.621,0,0,1-.686,0,4.027,4.027,0,0,0-6.248,3.37c0,2.519,2.069,8.229,4.038,8.229a4.013,4.013,0,0,0,2.209-.664A.624.624,0,0,1,28.4,42.142Z" transform="translate(-20.564 -29.4)"/></svg>