<svg xmlns="http://www.w3.org/2000/svg" width="17.665" height="16.652" viewBox="0 0 17.665 16.652"><defs><style>.a{fill:#1d4980;}</style></defs><path class="a" d="M32.271,46.052A5.845,5.845,0,0,1,29.4,45.3a5.91,5.91,0,0,1-2.877.749c-3.619,0-5.961-7.942-5.961-10.691A5.968,5.968,0,0,1,26.525,29.4a5.906,5.906,0,0,1,2.873.749,5.842,5.842,0,0,1,2.869-.749,5.968,5.968,0,0,1,5.962,5.961C38.233,38.107,35.89,46.052,32.271,46.052ZM29.4,43.78a.7.7,0,0,1,.389.117,4.451,4.451,0,0,0,2.478.749c2.222,0,4.557-6.444,4.557-9.286A4.563,4.563,0,0,0,32.271,30.8a4.457,4.457,0,0,0-2.478.749.7.7,0,0,1-.774,0,4.544,4.544,0,0,0-7.05,3.8c0,2.842,2.335,9.286,4.556,9.286a4.529,4.529,0,0,0,2.493-.749A.7.7,0,0,1,29.4,43.78Z" transform="translate(-20.564 -29.4)"/></svg>