<svg xmlns="http://www.w3.org/2000/svg" width="23.292" height="35" viewBox="0 0 23.292 35"><defs><style>.a{fill:#1d4980;}</style></defs><g transform="translate(-13.528 -5.249)"><path class="a" d="M34.345,43.32H16a2.475,2.475,0,0,1-2.475-2.475V18.786a3.059,3.059,0,0,1,3.054-3.054H33.765a3.059,3.059,0,0,1,3.054,3.054V40.846A2.475,2.475,0,0,1,34.345,43.32ZM16.584,16.792a2,2,0,0,0-1.994,1.994V40.845A1.414,1.414,0,0,0,16,42.259h18.34a1.414,1.414,0,0,0,1.414-1.414V18.786a2,2,0,0,0-1.994-1.994Z" transform="translate(-0.001 -3.071)"/><path class="a" d="M36.29,24.161H14.058a.53.53,0,1,1,0-1.061H36.29a.53.53,0,1,1,0,1.061Z" transform="translate(0 -5.23)"/><path class="a" d="M36.29,46.946H14.058a.53.53,0,1,1,0-1.061H36.29a.53.53,0,1,1,0,1.061Z" transform="translate(0 -11.905)"/><path class="a" d="M33.936,15.846H19.75a.53.53,0,0,1-.53-.53V13.028a.53.53,0,0,1,.53-.53H33.936a.53.53,0,0,1,.53.53v2.287a.53.53,0,0,1-.53.53ZM20.281,14.785H33.406V13.56H20.281Z" transform="translate(-1.668 -2.124)"/><path class="a" d="M33.969,11.436H18.228a1.552,1.552,0,0,1-1.55-1.551V6.8a1.551,1.551,0,0,1,1.55-1.55H33.969a1.552,1.552,0,0,1,1.55,1.55V9.884a1.555,1.555,0,0,1-1.55,1.552ZM18.228,6.31a.489.489,0,0,0-.489.489V9.884a.49.49,0,0,0,.489.49H33.969a.491.491,0,0,0,.489-.49V6.8a.49.49,0,0,0-.489-.489Z" transform="translate(-0.923 0)"/><path class="a" d="M21.415,11.436a.53.53,0,0,1-.53-.53V5.78a.53.53,0,0,1,1.061,0v5.125a.53.53,0,0,1-.53.531Z" transform="translate(-2.155 0)"/><path class="a" d="M25.6,11.436a.53.53,0,0,1-.53-.53V5.78a.53.53,0,0,1,1.061,0v5.125a.53.53,0,0,1-.53.531Z" transform="translate(-3.381 0)"/><path class="a" d="M29.78,11.436a.53.53,0,0,1-.53-.53V5.78a.53.53,0,0,1,1.061,0v5.125a.53.53,0,0,1-.53.531Z" transform="translate(-4.606 0)"/><path class="a" d="M33.966,11.436a.53.53,0,0,1-.53-.53V5.78a.53.53,0,0,1,1.061,0v5.125a.53.53,0,0,1-.53.531Z" transform="translate(-5.832 0)"/><path class="a" d="M38.149,11.436a.53.53,0,0,1-.53-.53V5.78a.53.53,0,0,1,1.061,0v5.125a.53.53,0,0,1-.53.531Z" transform="translate(-7.058 0)"/><path class="a" d="M21.578,37.444h-.906a1.361,1.361,0,0,1-1.359-1.359V31.337a1.361,1.361,0,0,1,1.359-1.359h.906a1.361,1.361,0,0,1,1.359,1.359v4.751A1.361,1.361,0,0,1,21.578,37.444Zm-.906-6.408a.3.3,0,0,0-.3.3v4.751a.3.3,0,0,0,.3.3h.906a.3.3,0,0,0,.3-.3V31.337a.3.3,0,0,0-.3-.3Z" transform="translate(-1.695 -7.245)"/><path class="a" d="M37.827,37.444h-.906a1.361,1.361,0,0,1-1.359-1.359V31.337a1.361,1.361,0,0,1,1.359-1.359h.906a1.361,1.361,0,0,1,1.359,1.359v4.751A1.361,1.361,0,0,1,37.827,37.444Zm-.906-6.408a.3.3,0,0,0-.3.3v4.751a.3.3,0,0,0,.3.3h.906a.3.3,0,0,0,.3-.3V31.337a.3.3,0,0,0-.3-.3Z" transform="translate(-6.455 -7.245)"/><path class="a" d="M32.393,35.572H23.47a.53.53,0,1,1,0-1.061h8.923a.53.53,0,0,1,0,1.061Z" transform="translate(-2.757 -8.573)"/><path class="a" d="M40.583,35.572H39.72a.53.53,0,0,1,0-1.061h.863a.53.53,0,0,1,0,1.061Z" transform="translate(-7.518 -8.573)"/><path class="a" d="M19.483,35.572H18.62a.53.53,0,0,1,0-1.061h.863a.53.53,0,0,1,0,1.061Z" transform="translate(-1.337 -8.573)"/></g></svg>