<svg xmlns="http://www.w3.org/2000/svg" width="18.528" height="21.393" viewBox="0 0 18.528 21.393"><defs><style>.a{fill:#1d4980;}</style></defs><g transform="translate(-20.735 -25.858)"><path class="a" d="M30,47.251a9.264,9.264,0,1,1,9.263-9.264A9.264,9.264,0,0,1,30,47.251Zm0-17.028a7.764,7.764,0,1,0,7.763,7.764A7.764,7.764,0,0,0,30,30.223Z"/><path class="a" d="M22.587,30.861a.75.75,0,0,1-.428-1.366l2.017-1.4a.75.75,0,1,1,.855,1.233l-2.017,1.4a.746.746,0,0,1-.427.133Z"/><path class="a" d="M24.74,31.838a.748.748,0,0,1-.619-.328l-1.145-1.674a.75.75,0,1,1,1.238-.846l1.145,1.675a.75.75,0,0,1-.619,1.173Z"/><path class="a" d="M37.413,30.861a.746.746,0,0,1-.427-.134l-2.017-1.4a.75.75,0,1,1,.855-1.233l2.017,1.4a.75.75,0,0,1-.428,1.366Z"/><path class="a" d="M35.26,31.838a.749.749,0,0,1-.618-1.173l1.144-1.675a.75.75,0,1,1,1.238.846L35.88,31.51a.75.75,0,0,1-.62.328Z"/><path class="a" d="M33.443,38.737H30a.75.75,0,0,1-.6-.3l-3.1-4.171a.749.749,0,1,1,1.2-.894l2.878,3.868h3.066a.75.75,0,1,1,0,1.5Z"/><path class="a" d="M30,30.223a.75.75,0,0,1-.75-.75V26.608a.75.75,0,0,1,1.5,0v2.865A.75.75,0,0,1,30,30.223Z"/><path class="a" d="M31.736,27.358H28.264a.75.75,0,0,1,0-1.5h3.472a.75.75,0,0,1,0,1.5Z"/></g></svg>