<svg xmlns="http://www.w3.org/2000/svg" width="25.698" height="21.129" viewBox="0 0 25.698 21.129"><defs><style>.a{fill:#1d4980;}</style></defs><g transform="translate(0 0)"><g transform="translate(0 0)"><path class="a" d="M17.611,50.471a8,8,0,0,0-4.762,1.55A7.988,7.988,0,0,0,10,50.7l2.173-2.49,0,0a.375.375,0,0,0,.035-.048l0-.008a.376.376,0,0,0,.025-.052l0-.008a.373.373,0,0,0,.016-.056v-.005a.382.382,0,0,0,.006-.056s0,0,0-.007,0,0,0,0a.382.382,0,0,0,0-.053l0-.01a.367.367,0,0,0-.014-.056l0-.007a.377.377,0,0,0-.025-.056v0a.373.373,0,0,0-.036-.053v0L10.5,45.656a.377.377,0,0,0-.292-.139H5.969a.377.377,0,0,0-.292.139L4,47.719v0a.378.378,0,0,0-.036.053v0a.382.382,0,0,0-.025.056l0,.007a.382.382,0,0,0-.014.056l0,.01a.375.375,0,0,0,0,.053s0,0,0,0,0,0,0,.007a.374.374,0,0,0,.006.056v.005a.37.37,0,0,0,.016.056l0,.008a.377.377,0,0,0,.025.052l0,.008A.381.381,0,0,0,4,48.2l0,0L6.178,50.7A8.088,8.088,0,0,0,8.087,66.646a8,8,0,0,0,4.762-1.55,8,8,0,0,0,4.762,1.55,8.087,8.087,0,0,0,0-16.175Zm-7.585-4.2,1.067,1.31H9.866l-.422-1.31ZM9.86,48.336h1.2l-1.922,2.2-.035,0ZM7.524,46.271H8.651l.422,1.31H7.1Zm1.538,2.065-.739,2.139c-.078,0-.157,0-.236,0l-.148,0-.087,0-.739-2.139ZM6.149,46.271h.582l-.422,1.31H5.081ZM5.117,48.336h1.2l.759,2.2-.034,0Zm2.97,17.556A7.333,7.333,0,0,1,6.953,51.314q.131-.02.264-.036l.033,0c.118-.014.237-.023.356-.031h.006c.088-.006.168-.01.244-.013s.154,0,.232,0c.154,0,.308.01.474.021H8.6c.2.015.407.039.619.072a.378.378,0,0,0,.058,0h0a7.246,7.246,0,0,1,3.332,1.469q.152.12.3.247t.278.256q.073.071.145.144.2.209.39.433h0a7.332,7.332,0,0,1,.227,9.088l-.006,0q-.078-.065-.154-.133l-.029-.027c-.041-.037-.081-.074-.12-.112l-.051-.051-.093-.094-.055-.058-.085-.092-.025-.029a6.462,6.462,0,0,0,1.161-2.839.377.377,0,1,0-.746-.111,5.7,5.7,0,0,1-.9,2.325,5.726,5.726,0,0,1,0-6.349,5.686,5.686,0,0,1,.932,2.583.377.377,0,0,0,.375.339l.039,0a.377.377,0,0,0,.337-.414,6.446,6.446,0,0,0-1.387-3.38,6.511,6.511,0,0,0-1.068-1.055q-.085-.066-.172-.13a6.478,6.478,0,0,0-8.058.337.377.377,0,0,0,.494.57,5.722,5.722,0,0,1,6.794-.518,8.085,8.085,0,0,0,0,9.687,5.723,5.723,0,0,1-7.751-8.1.377.377,0,1,0-.62-.43,6.478,6.478,0,0,0,8.854,9.122l.028.03.075.081.073.077.078.079.075.075.08.077.077.073.082.075.054.05A7.249,7.249,0,0,1,8.087,65.892Zm9.523,0a7.258,7.258,0,0,1-4.529-1.565,7.333,7.333,0,0,1-1.337-10.169l.006,0q.078.065.155.134l.03.028c.04.037.08.074.119.111l.052.051.093.093.056.059.084.091.026.029a6.478,6.478,0,0,0,1.429,9.033,6.477,6.477,0,0,0,8.328-.585.377.377,0,1,0-.526-.541,5.722,5.722,0,0,1-7.033.737,8.085,8.085,0,0,0,0-9.687,5.723,5.723,0,0,1,7.923,7.842.377.377,0,1,0,.642.4,6.478,6.478,0,0,0-9.049-8.825l-.027-.029-.077-.083-.071-.074-.08-.081-.072-.072-.082-.079-.074-.07-.085-.077-.052-.048a7.251,7.251,0,0,1,4.152-1.287,7.333,7.333,0,1,1,0,14.665Z" transform="translate(0 -45.517)"/></g></g></svg>