<svg xmlns="http://www.w3.org/2000/svg" xmlns:xlink="http://www.w3.org/1999/xlink" width="20.916" height="18.301" viewBox="0 0 20.916 18.301"><defs><style>.a{fill:#1d4980;}.b{clip-path:url(#a);}</style><clipPath id="a"><path class="a" d="M1.307,7.843h15.51l-4.749-5.7A1.307,1.307,0,0,1,14.076.47l6.536,7.843a1.231,1.231,0,0,1,.115.2,1.238,1.238,0,0,1,.093.162,1.288,1.288,0,0,1,.094.468s0,0,0,.005,0,0,0,.005a1.288,1.288,0,0,1-.094.468,1.238,1.238,0,0,1-.093.162,1.231,1.231,0,0,1-.115.2L14.076,17.83a1.307,1.307,0,0,1-2.008-1.673l4.749-5.7H1.307a1.307,1.307,0,1,1,0-2.614" transform="translate(0)"/></clipPath></defs><g transform="translate(0 0)"><path class="a" d="M1.307,7.843h15.51l-4.749-5.7A1.307,1.307,0,0,1,14.076.47l6.536,7.843a1.231,1.231,0,0,1,.115.2,1.238,1.238,0,0,1,.093.162,1.288,1.288,0,0,1,.094.468s0,0,0,.005,0,0,0,.005a1.288,1.288,0,0,1-.094.468,1.238,1.238,0,0,1-.093.162,1.231,1.231,0,0,1-.115.2L14.076,17.83a1.307,1.307,0,0,1-2.008-1.673l4.749-5.7H1.307a1.307,1.307,0,1,1,0-2.614" transform="translate(0)"/></g></svg>