<svg xmlns="http://www.w3.org/2000/svg" width="26.48" height="23.067" viewBox="0 0 26.48 23.067"><defs><style>.a{fill:#fff;}</style></defs><g transform="translate(0 -33)"><path class="a" d="M173.5,42a4.5,4.5,0,1,0-4.5-4.5A4.5,4.5,0,0,0,173.5,42Zm0-7.448a2.948,2.948,0,1,1-2.948,2.948A2.951,2.951,0,0,1,173.5,34.552Z" transform="translate(-160.259)"/><path class="a" d="M379.845,102.689A2.845,2.845,0,1,0,377,99.845,2.848,2.848,0,0,0,379.845,102.689Zm0-4.138a1.293,1.293,0,1,1-1.293,1.293A1.294,1.294,0,0,1,379.845,98.552Z" transform="translate(-357.502 -60.69)"/><path class="a" d="M22.969,241h-1.2a3.517,3.517,0,0,0-3.191,2.035A6.244,6.244,0,0,0,13.963,241H12.517A6.244,6.244,0,0,0,7.9,243.035,3.517,3.517,0,0,0,4.712,241h-1.2A3.505,3.505,0,0,0,0,244.491v5.648a1.52,1.52,0,0,0,1.521,1.515H6.265a1.813,1.813,0,0,0,1.8,1.655H18.411a1.814,1.814,0,0,0,1.8-1.655h4.69a1.574,1.574,0,0,0,1.575-1.569v-5.594A3.505,3.505,0,0,0,22.969,241ZM1.552,244.491a1.952,1.952,0,0,1,1.96-1.939h1.2a1.952,1.952,0,0,1,1.96,1.939v.531c-.522,1.358-.414,2.172-.414,5.081H1.552ZM18.671,251.5a.26.26,0,0,1-.26.26H8.069a.26.26,0,0,1-.26-.26v-4.239a4.713,4.713,0,0,1,4.708-4.708h1.446a4.713,4.713,0,0,1,4.708,4.708Zm6.258-1.413c0,.027.289.018-4.706.018,0-2.93.107-3.725-.414-5.081v-.531a1.952,1.952,0,0,1,1.96-1.939h1.2a1.952,1.952,0,0,1,1.96,1.939Z" transform="translate(0 -197.242)"/><path class="a" d="M27.845,102.689A2.845,2.845,0,1,0,25,99.845,2.848,2.848,0,0,0,27.845,102.689Zm0-4.138a1.293,1.293,0,1,1-1.293,1.293A1.294,1.294,0,0,1,27.845,98.552Z" transform="translate(-23.707 -60.69)"/></g></svg>