<svg xmlns="http://www.w3.org/2000/svg" xmlns:xlink="http://www.w3.org/1999/xlink" width="18.27" height="17.276" viewBox="0 0 18.27 17.276"><defs><style>.a{fill:#d4dce7;}.b{fill:#fff;opacity:0.995;}.c{clip-path:url(#a);}</style><clipPath id="a"><path class="a" d="M6.043,0A2.1,2.1,0,0,0,4.8.4L2.912,1.757a1.966,1.966,0,0,0-.447,2.778,1.68,1.68,0,0,1,.211,1.6l-.05.145A1.627,1.627,0,0,1,1.6,7.331l-.15.049A2,2,0,0,0,.1,9.919l.746,2.241a1.955,1.955,0,0,0,1.027,1.152,2.054,2.054,0,0,0,.892.2,2.1,2.1,0,0,0,.645-.1,1.8,1.8,0,0,1,.554-.087,1.846,1.846,0,0,1,1.069.343l.118.085a1.62,1.62,0,0,1,.67,1.3v.208a2.056,2.056,0,0,0,2.086,2.009l2.33,0a2.111,2.111,0,0,0,1.46-.579,1.967,1.967,0,0,0,.623-1.447l0-.241a1.511,1.511,0,0,1,.634-1.235l.1-.07a1.671,1.671,0,0,1,.96-.3,1.636,1.636,0,0,1,.5.076l.31.1a2.165,2.165,0,0,0,.65.1,2.12,2.12,0,0,0,.932-.215,2.02,2.02,0,0,0,1.054-1.19l.719-2.178A2.01,2.01,0,0,0,16.833,7.56L16.65,7.5a1.7,1.7,0,0,1-1.106-1.111,1.612,1.612,0,0,1,.237-1.427l.238-.323a1.985,1.985,0,0,0-.464-2.789L13.672.507A2.111,2.111,0,0,0,12.437.112a2.22,2.22,0,0,0-.328.025,2.082,2.082,0,0,0-1.379.827l-.108.148a1.616,1.616,0,0,1-1.288.673l-.08,0a1.642,1.642,0,0,1-1.3-.662L7.74.838A2.086,2.086,0,0,0,6.361.023,2.212,2.212,0,0,0,6.043,0ZM2.768,11.788a.156.156,0,0,1-.069-.016.207.207,0,0,1-.108-.128L1.845,9.4a.3.3,0,0,1,.2-.388l.15-.048A3.407,3.407,0,0,0,4.368,6.8L4.4,6.7a3.335,3.335,0,0,0-.421-3.129.305.305,0,0,1,.033-.438l1.892-1.36a.239.239,0,0,1,.142-.045l.03,0a.249.249,0,0,1,.166.1l.211.283A3.523,3.523,0,0,0,9.171,3.51h.077a3.512,3.512,0,0,0,2.877-1.416l.108-.148a.25.25,0,0,1,.166-.1.194.194,0,0,1,.037,0,.228.228,0,0,1,.135.046L14.454,3.23a.31.31,0,0,1,.062.427l-.237.324a3.272,3.272,0,0,0-.487,2.9A3.472,3.472,0,0,0,16.07,9.14l.184.059a.3.3,0,0,1,.174.378l-.719,2.178a.277.277,0,0,1-.141.166.224.224,0,0,1-.1.024.233.233,0,0,1-.07-.011l-.31-.1a3.585,3.585,0,0,0-3.135.487l-.1.07a3.215,3.215,0,0,0-1.36,2.622l0,.242a.3.3,0,0,1-.092.219.237.237,0,0,1-.167.07l-2.327,0a.276.276,0,0,1-.26-.288v-.209a3.332,3.332,0,0,0-1.39-2.673l-.118-.085a3.745,3.745,0,0,0-3.32-.515.172.172,0,0,1-.053.009ZM9.136,5.615a3.117,3.117,0,0,0-3.2,3.023,3.117,3.117,0,0,0,3.2,3.023,3.117,3.117,0,0,0,3.2-3.023A3.117,3.117,0,0,0,9.136,5.615Zm0,4.319a1.3,1.3,0,1,1,1.37-1.3A1.336,1.336,0,0,1,9.136,9.934Z" transform="translate(18.27 17.276) rotate(180)"/></clipPath></defs><g transform="translate(0)"><path class="b" d="M6.043,0A2.1,2.1,0,0,0,4.8.4L2.912,1.757a1.966,1.966,0,0,0-.447,2.778,1.68,1.68,0,0,1,.211,1.6l-.05.145A1.627,1.627,0,0,1,1.6,7.331l-.15.049A2,2,0,0,0,.1,9.919l.746,2.241a1.955,1.955,0,0,0,1.027,1.152,2.054,2.054,0,0,0,.892.2,2.1,2.1,0,0,0,.645-.1,1.8,1.8,0,0,1,.554-.087,1.846,1.846,0,0,1,1.069.343l.118.085a1.62,1.62,0,0,1,.67,1.3v.208a2.056,2.056,0,0,0,2.086,2.009l2.33,0a2.111,2.111,0,0,0,1.46-.579,1.967,1.967,0,0,0,.623-1.447l0-.241a1.511,1.511,0,0,1,.634-1.235l.1-.07a1.671,1.671,0,0,1,.96-.3,1.636,1.636,0,0,1,.5.076l.31.1a2.165,2.165,0,0,0,.65.1,2.12,2.12,0,0,0,.932-.215,2.02,2.02,0,0,0,1.054-1.19l.719-2.178A2.01,2.01,0,0,0,16.833,7.56L16.65,7.5a1.7,1.7,0,0,1-1.106-1.111,1.612,1.612,0,0,1,.237-1.427l.238-.323a1.985,1.985,0,0,0-.464-2.789L13.672.507A2.111,2.111,0,0,0,12.437.112a2.22,2.22,0,0,0-.328.025,2.082,2.082,0,0,0-1.379.827l-.108.148a1.616,1.616,0,0,1-1.288.673l-.08,0a1.642,1.642,0,0,1-1.3-.662L7.74.838A2.086,2.086,0,0,0,6.361.023,2.212,2.212,0,0,0,6.043,0ZM2.768,11.788a.156.156,0,0,1-.069-.016.207.207,0,0,1-.108-.128L1.845,9.4a.3.3,0,0,1,.2-.388l.15-.048A3.407,3.407,0,0,0,4.368,6.8L4.4,6.7a3.335,3.335,0,0,0-.421-3.129.305.305,0,0,1,.033-.438l1.892-1.36a.239.239,0,0,1,.142-.045l.03,0a.249.249,0,0,1,.166.1l.211.283A3.523,3.523,0,0,0,9.171,3.51h.077a3.512,3.512,0,0,0,2.877-1.416l.108-.148a.25.25,0,0,1,.166-.1.194.194,0,0,1,.037,0,.228.228,0,0,1,.135.046L14.454,3.23a.31.31,0,0,1,.062.427l-.237.324a3.272,3.272,0,0,0-.487,2.9A3.472,3.472,0,0,0,16.07,9.14l.184.059a.3.3,0,0,1,.174.378l-.719,2.178a.277.277,0,0,1-.141.166.224.224,0,0,1-.1.024.233.233,0,0,1-.07-.011l-.31-.1a3.585,3.585,0,0,0-3.135.487l-.1.07a3.215,3.215,0,0,0-1.36,2.622l0,.242a.3.3,0,0,1-.092.219.237.237,0,0,1-.167.07l-2.327,0a.276.276,0,0,1-.26-.288v-.209a3.332,3.332,0,0,0-1.39-2.673l-.118-.085a3.745,3.745,0,0,0-3.32-.515.172.172,0,0,1-.053.009ZM9.136,5.615a3.117,3.117,0,0,0-3.2,3.023,3.117,3.117,0,0,0,3.2,3.023,3.117,3.117,0,0,0,3.2-3.023A3.117,3.117,0,0,0,9.136,5.615Zm0,4.319a1.3,1.3,0,1,1,1.37-1.3A1.336,1.336,0,0,1,9.136,9.934Z" transform="translate(18.27 17.276) rotate(180)"/></g></svg>